<svg width="20" height="20" viewBox="0 0 20 20" fill="none" xmlns="http://www.w3.org/2000/svg">
<path d="M0 19.5V17.5H9V6.325C8.56667 6.175 8.19167 5.94167 7.875 5.625C7.55833 5.30833 7.325 4.93333 7.175 4.5H4L7 11.5C7 12.3333 6.65833 13.0417 5.975 13.625C5.29167 14.2083 4.46667 14.5 3.5 14.5C2.53333 14.5 1.70833 14.2083 1.025 13.625C0.341667 13.0417 0 12.3333 0 11.5L3 4.5H1V2.5H7.175C7.375 1.91667 7.73333 1.43733 8.25 1.062C8.76667 0.687333 9.35 0.5 10 0.5C10.65 0.5 11.2333 0.687333 11.75 1.062C12.2667 1.43733 12.625 1.91667 12.825 2.5H19V4.5H17L20 11.5C20 12.3333 19.6583 13.0417 18.975 13.625C18.2917 14.2083 17.4667 14.5 16.5 14.5C15.5333 14.5 14.7083 14.2083 14.025 13.625C13.3417 13.0417 13 12.3333 13 11.5L16 4.5H12.825C12.675 4.93333 12.4417 5.30833 12.125 5.625C11.8083 5.94167 11.4333 6.175 11 6.325V17.5H20V19.5H0ZM14.625 11.5H18.375L16.5 7.15L14.625 11.5ZM1.625 11.5H5.375L3.5 7.15L1.625 11.5ZM10 4.5C10.2833 4.5 10.521 4.40433 10.713 4.213C10.9043 4.021 11 3.78333 11 3.5C11 3.21667 10.9043 2.979 10.713 2.787C10.521 2.59567 10.2833 2.5 10 2.5C9.71667 2.5 9.47933 2.59567 9.288 2.787C9.096 2.979 9 3.21667 9 3.5C9 3.78333 9.096 4.021 9.288 4.213C9.47933 4.40433 9.71667 4.5 10 4.5Z" fill="#1C1B1F"/>
</svg>
