<svg width="394" height="316" viewBox="0 0 394 316" fill="none" xmlns="http://www.w3.org/2000/svg">
<path d="M62.5731 282.792C49.7502 262.7 41.55 239.917 38.6768 216.096C37.0416 202.539 37.1624 188.898 38.9853 175.5H1.17683C-0.461148 190.418 -0.39692 205.546 1.41758 220.59C5.14426 251.488 16.1258 280.972 33.3549 306.678C39.1246 315.287 51.0306 316.425 59.0516 309.863C67.0696 303.303 68.1477 291.537 62.5793 282.802L62.5731 282.792Z" fill="#B5C22C"/>
<path fill-rule="evenodd" clip-rule="evenodd" d="M359.256 308.723C353.383 317.229 341.501 318.221 333.568 311.594C341.49 318.241 353.392 317.24 359.256 308.723ZM327.542 302.351C325.831 296.513 326.797 289.881 330.344 284.466C326.794 289.878 325.83 296.512 327.542 302.351Z" fill="#D9D9D9"/>
<path d="M359.271 308.702C376.818 283.211 388.164 253.866 392.275 223.017C394.365 207.328 394.547 191.524 392.871 175.939H355.074C356.927 189.849 356.946 204.012 355.074 218.061C351.905 241.844 343.423 264.524 330.351 284.455L330.344 284.466C326.797 289.881 325.831 296.513 327.542 302.351C328.569 305.853 330.56 309.07 333.536 311.568L333.568 311.594C341.501 318.221 353.383 317.229 359.256 308.723L359.271 308.702Z" fill="#D63A3B"/>
<path d="M38.9853 175.5C41.2036 159.197 45.9422 143.255 53.1046 128.261C57.1914 119.706 62.0145 111.571 67.5 103.937C71.2603 98.7048 75.3318 93.7084 79.6908 88.9747C82.6628 85.7474 85.7683 82.6422 89 79.6675L67.5 48.5454C47.3297 66.1406 30.8716 87.7369 19.2407 112.085C9.65314 132.155 3.58116 153.602 1.17683 175.5H38.9853Z" fill="#77C22A"/>
<path d="M92.4449 30.0353C83.6199 35.5616 75.2835 41.7556 67.5 48.5454L89 79.6675C96.191 73.0484 104.006 67.0758 112.363 61.8427C137.74 45.9516 167.072 37.5292 197 37.5293V4.60744e-10C160.028 -5.91111e-05 123.794 10.4044 92.4449 30.0353Z" fill="#F5B400"/>
<path d="M303.621 31.3467C272.175 11.1072 235.619 0.236017 198.223 0.00379965C197.816 0.00126667 197.408 6.52345e-07 197 4.60744e-10V37.5293C197.33 37.5293 197.66 37.5303 197.99 37.5323C228.262 37.7203 257.854 46.5205 283.309 62.9042C290.658 67.6339 297.573 72.9392 304 78.7546L325 47.25C318.265 41.4934 311.126 36.177 303.621 31.3467Z" fill="#F58300"/>
<path d="M375.8 114.299C363.848 88.4582 346.484 65.6139 325 47.25L304 78.7546C306.923 81.3996 309.745 84.1501 312.46 87C316.938 91.7004 321.126 96.6711 325 101.884C331.502 110.634 337.119 120.068 341.738 130.054C348.497 144.665 352.969 160.139 355.074 175.939H392.871C390.588 154.703 384.855 133.874 375.8 114.299Z" fill="#F55A00"/>
</svg>
