<?xml version="1.0" encoding="utf-8"?>
<!-- Generator: Adobe Illustrator 26.0.1, SVG Export Plug-In . SVG Version: 6.00 Build 0)  -->
<svg version="1.1" id="Слой_1" xmlns="http://www.w3.org/2000/svg" xmlns:xlink="http://www.w3.org/1999/xlink" x="0px" y="0px"
	 viewBox="0 0 442.08 447.84" style="enable-background:new 0 0 442.08 447.84;" xml:space="preserve">
<style type="text/css">
	.st0{fill:none;stroke:#000000;stroke-width:2;stroke-miterlimit:10;}
	.st1{stroke:#000000;stroke-miterlimit:10;}
	.st2{fill:none;}
	.st3{stroke:#000000;stroke-width:3;stroke-miterlimit:10;}
	.st4{stroke:#010202;stroke-width:3;stroke-miterlimit:10;}
	.st5{stroke:#000000;stroke-width:10;stroke-miterlimit:10;}
	.st6{fill:#E30613;}
	.st7{fill:#FFFFFF;}
	.st8{fill:#020203;stroke:#000000;stroke-miterlimit:10;}
	.st9{fill:none;stroke:#000000;stroke-miterlimit:10;}
	.st10{fill:#020203;stroke:#020203;stroke-width:3;stroke-miterlimit:10;}
	.st11{fill:#020203;stroke:#020203;stroke-width:10;stroke-miterlimit:10;}
	.st12{fill:#E30613;stroke:#000000;stroke-miterlimit:10;}
	.st13{fill:#020203;stroke:#020203;stroke-miterlimit:10;}
</style>
<path class="st0" d="M109.11-109.49"/>
<g>
	<path class="st1" d="M-598.59,166.75c-1.86-7.24-5.56-12.83-12.97-14.84c-3.65-0.99-7.37-0.89-10.99-0.02
		c-13.02,3.12-24.07,9.95-33.33,19.88c-4.32,4.64-6.78,10.33-7.13,16.84c-0.51,9.53,1.54,18.72,4.74,27.47
		c5.19,14.18,6.97,28.68,5.67,43.7c-0.5,5.76-1.47,11.49-0.74,17.32c0.92,7.35,3.3,13.97,8.37,19.34
		c9.52,10.08,24.22,9.12,32.3-2.18c4.1-5.73,6.15-12.29,6.45-19.39c0.37-8.8-1.58-17.26-5.05-25.12
		c-3.83-8.69-4.48-17.39-2.19-26.44c2.02-7.96,4.88-15.58,9.8-22.18c0.07-0.11,0.14-0.22,0.21-0.33
		C-596.97,190.21-595.49,178.82-598.59,166.75z"/>
	<path class="st1" d="M-603.58,143.43c2.16-2.7,3.11-5.85,3.18-9.09c-0.01-3.42-0.79-6.36-2.56-8.99
		c-4.01-5.94-11.42-6.37-16.01-0.94c-4.55,5.38-4.35,14.5,0.44,19.64C-614.22,148.67-607.55,148.4-603.58,143.43z"/>
	<path class="st1" d="M-625.45,146.58c2-3.53,1.63-8.3-0.87-11.37c-2.69-3.3-7.13-3.44-9.98-0.29c-1.67,1.85-2.39,4.09-2.43,6.6
		c-0.01,1.78,0.4,3.44,1.24,4.97C-634.63,151.68-628.36,151.72-625.45,146.58z"/>
	<path class="st1" d="M-650.33,145.27c-0.79,1.28-1.13,2.68-1.14,3.49c0,2.45,0.52,4.2,1.46,5.58c2.41,3.53,6.74,3.78,9.13,0.52
		c2.49-3.4,1.55-9.01-1.91-11.31C-645.44,141.79-648.61,142.51-650.33,145.27z"/>
	<path class="st1" d="M-653.62,163.98c0.47-0.16,0.89-0.4,1.27-0.71c0.19-0.15,0.36-0.33,0.52-0.51c0.81-0.93,1.27-2.25,1.27-3.73
		c0.02-0.85-0.13-1.65-0.42-2.4c-0.17-0.45-0.4-0.89-0.66-1.31c-1.2-1.9-3.24-2.87-5.04-2.43c-1.99,0.48-3.31,2.13-3.52,4.58
		c-0.14,1.62,0.34,3.12,1.26,4.44C-657.62,163.78-655.46,164.61-653.62,163.98z"/>
	<path class="st1" d="M-662.25,162.54c-1.96-0.03-3.53,1.88-3.51,4.29c0.02,2.57,2.03,4.86,4.24,4.84c2.01-0.02,3.43-1.75,3.41-4.16
		C-658.13,164.91-660.08,162.58-662.25,162.54z"/>
</g>
<g>
	<path class="st1" d="M-458.8,172.38c-0.28-0.32-0.56-0.65-0.83-0.97c-1.03-1.05-2.05-2.11-3.08-3.16
		c-4.17-3.6-8.55-6.89-13.31-9.61c-6.6-3.77-13.44-6.76-21.1-7.3c-8.94-0.64-15.79,3.7-18.72,12.54
		c-4.37,13.19-3.28,25.85,4.49,37.47c4.09,6.12,6.95,12.79,8.97,19.87c2.52,8.82,2.9,17.64-0.79,26.25
		c-3.08,7.17-5.21,14.58-5.83,22.4c-0.73,9.16,1.37,17.61,6.8,24.92c7.28,9.79,19.58,11.45,29.16,4.1
		c4.68-3.59,7.66-8.45,9.49-14.14c2.39-7.4,1.98-14.91,1.1-22.51c-1.51-13.11-0.89-26.12,3.04-38.75c2.3-7.4,4.89-14.69,6.25-22.36
		c-0.03-0.14-0.03-0.26,0-0.38c0.03-0.12,0.09-0.23,0.19-0.33v0l0,0v0l0,0c0.03-0.29,0.06-0.57,0.09-0.86
		c0.03-0.29,0.06-0.57,0.11-0.86c0.71-4.56,0.85-8.98,0.09-13.21c-0.76-4.23-2.41-8.26-5.28-12.01
		C-458.25,173.11-458.53,172.75-458.8,172.38z"/>
	<path class="st1" d="M-512.89,141.86c3.62,6.26,11.26,7.33,16.02,2.25c4.84-5.16,5.03-14.41,0.42-19.77
		c-4.29-4.99-10.85-5-15.14-0.01c-2.22,2.58-3.14,5.7-3.42,9.08c0.01,0.64,0.01,1.28,0.02,1.91c0.14,0.84,0.27,1.67,0.41,2.51
		c0.28,0.85,0.56,1.7,0.84,2.55C-513.46,140.87-513.17,141.37-512.89,141.86z"/>
	<path class="st1" d="M-479.01,148.13c1.68-1.86,2.34-4.13,2.38-6.63c0.01-1.67-0.35-3.24-1.12-4.7c-1.33-2.53-3.27-4.14-6.16-4.13
		c-2.9,0.01-4.89,1.63-6.1,4.2c-1.74,3.7-1.55,7.36,0.85,10.71C-486.6,151.18-481.96,151.39-479.01,148.13z"/>
	<path class="st1" d="M-466.6,155.78c1.87-1.61,2.72-3.72,2.72-6.22c0-0.37,0.04-0.74-0.01-1.1c-0.34-2.43-1.36-4.43-3.62-5.43
		c-2.05-0.91-3.96-0.42-5.67,0.99c-2.89,2.38-3.59,7.43-1.5,10.57C-472.77,157.47-469.2,158.01-466.6,155.78z"/>
	<path class="st1" d="M-464,161.97c0.81,1.42,2,2.18,3.84,2.2c2.05-0.08,3.54-1.38,4.45-3.42c0.98-2.21,0.96-4.4-0.57-6.38
		c-1.27-1.64-3.17-2.03-5.06-1.14C-464.36,154.67-465.69,158.99-464,161.97z"/>
	<path class="st1" d="M-451.67,162.84c-0.98-0.47-1.97-0.39-2.92,0.12c-1.79,0.97-2.51,2.62-2.68,4.62
		c0.03,0.42,0.06,0.84,0.09,1.26c0.05,0.11,0.1,0.23,0.15,0.34c0.05,0.21,0.11,0.41,0.16,0.62c0.32,0.19,0.5,0.49,0.62,0.84l0,0v0
		c0.17,0.11,0.34,0.23,0.51,0.34c2.03,1.31,4.35,0.56,5.55-1.81C-448.98,166.8-449.68,163.8-451.67,162.84z"/>
</g>
<path class="st2" d="M-556.55,133.15c0.39,0.02,0.79,0.04,1.18,0.04c1.18,0.01,2.35-0.06,3.51-0.2c0.78-0.09,1.55-0.21,2.32-0.35
	c0.77-0.14,1.54-0.3,2.3-0.47c8.52-1.96,15.92-6.12,21.82-11.75h-62.81c8.42,8.15,18.61,12.42,30.47,12.75
	C-557.36,133.17-556.95,133.16-556.55,133.15z"/>
<path class="st2" d="M-494.93,79.71c-2.83,4.25-5.99,8.35-9.47,12.04c-4.78,5.07-9.96,9.75-15.06,14.48
	c-3.06,2.84-6.3,5.47-9.47,8.18c-3.47,2.97-6.95,5.92-10.43,8.87c-3.12,2.64-6.23,5.28-9.36,7.9c-1.2,1-2.4,2.01-3.66,2.92
	c-2.55,1.82-6.73,1.75-9.21-0.22c-2.38-1.89-4.66-3.92-6.98-5.89c-3.48-2.96-6.95-5.92-10.43-8.87c-3.18-2.7-6.42-5.32-9.55-8.09
	c-5.11-4.53-10.16-9.13-15.21-13.72c-3.58-3.25-6.81-6.85-9.87-10.63c-3.6-4.44-6.66-9.17-9.05-14.44c-1.4-3.11-2.39-6.26-3-9.47
	c-18.86,0-37.72-0.01-56.58,0.01c-2.43,0-4.86-0.14-7.29,0.25c-6.62,1.08-12.43,7.62-12.63,14.32c-0.25,0.86-0.22,1.74-0.22,2.61
	c0,10.09,0,20.18,0,30.26c0,28.98,0,57.96,0,86.94c0,44.3,0,88.59,0,132.89c0,0.87-0.07,1.76,0.2,2.61
	c0.18,7.89,7.73,15.12,15.23,14.57c0.2,0.01,0.4,0.03,0.6,0.04c0.7,0.09,1.4,0.13,2.1,0.12c0.7,0,1.4-0.04,2.1-0.1
	c0.15,0.06,0.3,0.08,0.45,0.07c0.07-0.01,0.15-0.02,0.22-0.04c0.07-0.02,0.15-0.05,0.22-0.08c0.15,0.05,0.3,0.08,0.45,0.11
	c0.45,0.07,0.9,0.04,1.35-0.06c0.14,0.09,0.29,0.12,0.43,0.07c0.05-0.02,0.1-0.04,0.14-0.07c0.22,0.01,0.44,0.04,0.67,0.05
	c0.22,0.02,0.44,0.03,0.67,0.03c27.33,0,54.67,0,82,0c24.85,0,49.7,0,74.55-0.01c0.4,0,0.79-0.02,1.19-0.04
	c0.4-0.02,0.79-0.05,1.19-0.06c0,0,0,0,0,0c0.3,0,0.59,0.01,0.89,0.01c0.75,0.08,1.5,0.12,2.25,0.12c0.37,0,0.75-0.01,1.12-0.03
	c0.37-0.02,0.75-0.05,1.12-0.09c0,0,0,0,0,0c0.29,0,0.59,0,0.88,0c0.12,0.04,0.25,0.07,0.38,0.09c0.38,0.06,0.75,0.02,1.13-0.06
	c0.19,0,0.38,0,0.57,0c0.3,0.01,0.59,0.03,0.89,0.05c0.3,0.02,0.59,0.03,0.89,0.03c23.97,0,47.94,0.01,71.9,0
	c3.82,0,7.65,0.16,11.47-0.12c6.85-0.5,13.26-7.06,13.65-13.94c0.27-0.51,0.26-1.05,0.2-1.6c0.02-0.21,0.06-0.41,0.06-0.62
	c0-28.68-0.01-57.35-0.02-86.03c0-0.41-0.04-0.82-0.06-1.24c0-0.32,0-0.63-0.01-0.95c0.01-0.92,0.01-1.84,0.02-2.76
	c0-0.01,0-0.01,0-0.02v0c-0.01-0.42-0.02-0.84-0.04-1.26c0-0.2,0-0.4,0-0.6c0-0.11,0.01-0.22,0.01-0.33c0-0.11,0.01-0.22,0.01-0.33
	c0.02-0.57,0.06-1.13,0.06-1.7c0-52.02,0-104.04,0-156.06c0-0.26-0.01-0.52-0.02-0.77c-0.01-0.26-0.03-0.52-0.04-0.77
	c0.07-0.34,0.07-0.67-0.03-0.99c-0.03-0.11-0.08-0.21-0.14-0.31c-0.02-0.31-0.05-0.62-0.09-0.93c-0.08-0.61-0.2-1.21-0.37-1.79
	c-0.41-1.46-1.06-2.82-1.94-4.09c-0.06-0.1-0.11-0.2-0.17-0.31c-0.19-0.31-0.4-0.62-0.61-0.92c-0.64-0.89-1.38-1.68-2.27-2.32
	c-0.27-0.22-0.54-0.45-0.8-0.67c-0.02-0.01-0.03-0.03-0.05-0.04c-0.34-0.27-0.68-0.53-1.03-0.76c-2.44-1.64-5.19-2.36-8.12-2.36
	c-20.38-0.02-40.75-0.01-61.13-0.01c-0.21,1.14-0.44,2.27-0.72,3.39C-490.05,71.04-492.19,75.6-494.93,79.71z"/>
<path class="st2" d="M-608.01,80.61c1.43,1.58,2.69,3.33,4.18,4.85c3.65,3.74,7.33,7.46,11.12,11.05c2.81,2.66,5.77,5.14,8.71,7.66
	c5.12,4.38,10.27,8.72,15.39,13.1c2.75,2.35,5.45,4.74,8.2,7.09c1.15,0.98,2.36,1.89,3.6,2.88c4.51-3.79,9.02-7.58,13.54-11.38
	c2.96-2.49,5.95-4.94,8.87-7.47c5.16-4.47,10.33-8.92,15.38-13.53c3.21-2.93,6.3-6.02,9.24-9.24c3.83-4.18,7.53-8.61,9.99-13.79
	c1.44-3.03,2.54-6.06,3.27-9.07c-0.8,0-1.59,0-2.39,0v-12.8c1.07,0,2.15,0,3.22,0c-0.62-5.15-2.45-10.25-5.63-15.26
	c-1.18-1.86-2.73-3.51-4.26-5.09c-4.41-4.56-9.86-6.92-15.95-7.86c-9.61-1.49-17.88,1.42-24.8,8.36c-2.22,2.23-4.18,4.84-5.87,7.54
	c-2.23,3.57-7.32,3.34-9.27-0.01c-2.25-3.87-5.18-7.12-8.61-9.95c-3.33-2.75-6.99-4.64-11.11-5.57c-8.46-1.91-16.37-0.28-23.59,4.57
	c-4.57,3.07-7.89,7.45-10.28,12.51c-1.48,3.13-2.26,6.51-2.72,9.98c-0.03,0.26-0.06,0.52-0.09,0.79c1.03,0,2.07,0,3.1,0v12.79
	c-0.84,0-1.67,0-2.51,0c0.53,2.35,1.3,4.65,2.35,6.89C-613.08,73.58-610.93,77.38-608.01,80.61z"/>
<path class="st3" d="M-398.89,259.81c-0.03-0.54-0.08-1.09-0.08-1.63c0-10.86-0.01-21.72,0-32.59c0-1.98,0.04-3.96,0.07-5.95
	c0-0.1,0-0.2,0-0.3c-0.01-0.2-0.03-0.39-0.04-0.59c-0.01-0.2-0.03-0.39-0.03-0.59c0-27.19,0-54.38,0-81.57
	c0-0.39,0.04-0.79,0.06-1.18c-0.01-0.3-0.01-0.61-0.02-0.91c-0.02-3.57-0.05-7.14-0.04-10.71c0.01-10.61,0.03-21.22,0.04-31.83
	c0.01-0.21,0.02-0.42,0.03-0.63c-0.01-4.56-0.02-9.11-0.04-13.67c-0.01-0.1-0.02-0.2-0.02-0.31c-0.06-1.67-0.2-3.33-0.52-4.98
	c-1.01-5.26-3.5-9.76-7-13.75c-0.87-0.81-1.74-1.61-2.62-2.42c-5.02-3.9-10.67-6.12-17.07-6.3c-5.37,0.02-10.74,0.05-16.11,0.05
	c-15.06,0-30.12,0-45.17-0.01c0.05,0.1,0.11,0.2,0.15,0.3c0,2.57,0,5.14,0,7.71c-0.28,1.41-0.54,2.84-0.81,4.25
	c20.38,0,40.75-0.01,61.13,0.01c2.94,0,5.68,0.69,8.12,2.26c0.35,0.22,0.69,0.47,1.03,0.73c0.02,0.01,0.03,0.03,0.05,0.04
	c0.27,0.21,0.54,0.43,0.8,0.64c0.89,0.62,1.63,1.38,2.27,2.23c0.21,0.28,0.42,0.58,0.61,0.88c0.06,0.1,0.11,0.2,0.17,0.29
	c0.88,1.22,1.54,2.52,1.94,3.92c0.16,0.56,0.29,1.13,0.37,1.72c0.04,0.29,0.07,0.59,0.09,0.89c0.06,0.1,0.11,0.2,0.14,0.3
	c0.1,0.3,0.1,0.62,0.03,0.95c0.01,0.25,0.03,0.49,0.04,0.74c0.01,0.25,0.02,0.49,0.02,0.74c0,49.85,0,99.71,0,149.56
	c0,0.54-0.04,1.09-0.06,1.63c0,0.11-0.01,0.21-0.01,0.32c0,0.11-0.01,0.21-0.01,0.32c0,0.19,0,0.38,0,0.58
	c0.01,0.4,0.02,0.8,0.04,1.2v0c0,0.01,0,0.01,0,0.02c-0.01,0.88-0.01,1.76-0.02,2.64c0,0.3,0,0.61,0.01,0.91
	c0.02,0.4,0.06,0.79,0.06,1.19c0.01,27.48,0.02,54.96,0.02,82.44c0,0.2-0.04,0.39-0.06,0.59c0.07,0.53,0.08,1.05-0.2,1.54
	c-0.39,6.59-6.8,12.88-13.65,13.36c-3.82,0.27-7.65,0.11-11.47,0.11c-23.97,0.01-47.94,0.01-71.9,0c-0.3,0-0.59-0.01-0.89-0.03
	c-0.3-0.01-0.59-0.03-0.89-0.04c-0.19,0-0.38,0-0.57,0c-0.38,0.07-0.76,0.11-1.13,0.06c-0.13-0.02-0.25-0.05-0.38-0.09
	c-0.29,0-0.59,0-0.88,0c0,0,0,0,0,0c-0.37,0.04-0.75,0.07-1.12,0.09c-0.37,0.02-0.75,0.03-1.12,0.03c-0.75,0-1.5-0.04-2.25-0.11
	c-0.3,0-0.59-0.01-0.89-0.01c0,0,0,0,0,0c-0.4,0.02-0.79,0.04-1.19,0.06c-0.4,0.02-0.79,0.04-1.19,0.04
	c-24.85,0.01-49.7,0.01-74.55,0.01c-27.33,0-54.67,0-82,0c-0.22,0-0.44-0.01-0.67-0.03c-0.22-0.02-0.44-0.04-0.67-0.05
	c-0.05,0.03-0.1,0.05-0.14,0.07c-0.14,0.05-0.29,0.02-0.43-0.07c-0.45,0.09-0.91,0.12-1.35,0.06c-0.15-0.02-0.3-0.06-0.45-0.1
	c-0.07,0.03-0.14,0.06-0.22,0.08c-0.07,0.02-0.15,0.03-0.22,0.04c-0.15,0.01-0.3-0.01-0.45-0.07c-0.7,0.05-1.4,0.09-2.1,0.09
	c-0.7,0-1.4-0.03-2.1-0.12c-0.2-0.01-0.4-0.02-0.6-0.04c-7.49,0.53-15.04-6.39-15.23-13.96c-0.27-0.82-0.2-1.67-0.2-2.5
	c0-42.45,0-84.9,0-127.35c0-27.77,0-55.54,0-83.31c0-9.67,0-19.34,0-29c0-0.84-0.03-1.69,0.22-2.51c0.2-6.41,6.01-12.69,12.63-13.72
	c2.43-0.38,4.86-0.24,7.29-0.24c18.86-0.01,37.72-0.01,56.58-0.01c-0.8-4.01-0.95-8.09-0.5-12.26c-20.31,0-40.63,0.01-60.94,0
	c-0.15,0-0.3-0.03-0.44-0.05c-2.79,0.1-5.51,0.56-8.16,1.43c-10.13,3.34-18.8,13.01-19.06,26.02c0,0.1-0.01,0.21-0.01,0.31v0
	c0,10.61-0.01,21.22-0.01,31.83c0,0.61,0,1.21,0,1.82v0c0,0.68,0,1.37,0,2.05c-0.01,0.4-0.02,0.8-0.03,1.2
	c0.03,0.25,0.06,0.5,0.07,0.74c0.05,0.74,0.02,1.49-0.07,2.23c0.01,0.4,0.02,0.8,0.03,1.21v0c-0.01,0.39-0.02,0.77-0.03,1.16
	c0,0.21,0,0.42,0,0.63c0.01,0.19,0.02,0.38,0.03,0.56c0,0.11,0,0.22,0,0.32c0.02,0.35,0.04,0.69,0.04,1.04
	c0,51.39,0,102.77,0,154.16c0,0.35-0.03,0.69-0.04,1.04c0,0.7,0,1.41-0.01,2.11c0,0.59,0,1.17,0.01,1.76v0v0c0,0.3,0,0.6-0.01,0.9
	c0,0.3,0,0.6-0.01,0.9c-0.01,0.89-0.01,1.79-0.02,2.68c0.01,0.4,0.02,0.8,0.03,1.21v0c-0.01,0.39-0.02,0.77-0.03,1.16
	c0,0.21,0,0.42,0,0.63c0.01,10.21,0.02,20.42,0.03,30.63c0,0.1,0.01,0.21,0.01,0.31c0.06,1.63,0.18,3.26,0.53,4.87
	c2.91,13.56,14,22.51,27.91,22.51c13.13,0,26.26,0,39.38,0c55.05,0,110.1,0,165.15,0c0.65,0,1.29,0.03,1.94,0.05
	c0.11,0,0.21-0.01,0.32-0.01c0.55-0.01,1.09-0.04,1.64-0.04c17.15,0,34.3-0.01,51.46,0c2.5,0,4.94-0.39,7.34-1.07
	c10.68-3.01,19.9-13,20.19-26.31c0-0.1,0.01-0.21,0.01-0.31c0.01-5.26,0.02-10.51,0.02-15.77c0-0.16,0-0.32,0-0.48c0,0,0,0,0,0
	c-0.01-1.34-0.03-2.67-0.04-4.01c-0.01-1.34-0.02-2.67-0.02-4.01c0.01-11.65,0.03-23.29,0.04-34.94
	C-398.91,260.23-398.9,260.02-398.89,259.81z"/>
<path class="st4" d="M-617.77,49.18c0.46-3.47,1.24-6.85,2.72-9.98c2.39-5.06,5.71-9.43,10.28-12.51
	c7.22-4.85,15.12-6.48,23.59-4.57c4.11,0.93,7.78,2.82,11.11,5.57c3.43,2.83,6.36,6.07,8.61,9.95c1.95,3.35,7.03,3.58,9.27,0.01
	c1.69-2.7,3.64-5.31,5.87-7.54c6.92-6.94,15.19-9.86,24.8-8.36c6.09,0.95,11.54,3.3,15.95,7.86c1.53,1.58,3.08,3.23,4.26,5.09
	c3.18,5.01,5,10.11,5.63,15.26c2.75,0,5.5,0,8.26,0c-0.04-0.09-0.08-0.19-0.09-0.28c-0.52-4.46-1.32-8.81-3.34-12.89
	c-1.51-3.04-2.94-6.07-5.06-8.76c-2.53-3.21-5.39-6.02-8.7-8.25c-4.82-3.26-10.13-5.26-15.87-6.09c-6.96-1.01-13.71-0.28-20.14,2.6
	c-5.16,2.31-9.7,5.63-13.39,10.12c-0.9,1.1-1.9,2.11-2.62,2.91c-2.83-2.71-5.54-5.53-8.49-8.06c-5.33-4.57-11.54-7.04-18.4-7.76
	c-9.52-1.01-18.31,1.25-26.25,6.76c-3.9,2.7-7.26,6.15-9.77,10.26c-1.91,3.12-3.43,6.54-4.75,9.98c-0.89,2.32-1.28,4.89-1.64,7.39
	c-0.1,0.69-0.18,1.38-0.25,2.07c2.77,0,5.54,0,8.32,0C-617.83,49.7-617.81,49.44-617.77,49.18z"/>
<path class="st3" d="M-496.53,62.76c-0.73,3.02-1.83,6.04-3.27,9.07c-2.46,5.18-6.15,9.6-9.99,13.79c-2.95,3.22-6.03,6.31-9.24,9.24
	c-5.04,4.61-10.22,9.06-15.38,13.53c-2.92,2.53-5.91,4.98-8.87,7.47c-4.52,3.8-9.03,7.59-13.54,11.38c-1.25-0.99-2.46-1.9-3.6-2.88
	c-2.75-2.34-5.45-4.74-8.2-7.09c-5.12-4.37-10.27-8.71-15.39-13.1c-2.93-2.51-5.9-4.99-8.71-7.66c-3.79-3.59-7.46-7.31-11.12-11.05
	c-1.48-1.52-2.75-3.27-4.18-4.85c-2.92-3.24-5.08-7.03-6.91-10.96c-1.05-2.25-1.82-4.55-2.35-6.89c-2.8,0-5.6,0-8.41,0
	c0.61,3.21,1.6,6.36,3,9.47c2.38,5.27,5.45,10,9.05,14.44c3.07,3.78,6.29,7.38,9.87,10.63c5.05,4.59,10.1,9.2,15.21,13.72
	c3.12,2.77,6.36,5.39,9.55,8.09c3.48,2.95,6.95,5.92,10.43,8.87c2.32,1.97,4.6,4,6.98,5.89c2.48,1.97,6.66,2.04,9.21,0.22
	c1.27-0.9,2.47-1.91,3.66-2.92c3.13-2.62,6.25-5.26,9.36-7.9c3.48-2.95,6.96-5.9,10.43-8.87c3.17-2.71,6.41-5.34,9.47-8.18
	c5.1-4.73,10.28-9.41,15.06-14.48c3.48-3.69,6.64-7.79,9.47-12.04c2.74-4.11,4.88-8.66,6.11-13.56c0.28-1.12,0.51-2.25,0.72-3.39
	c-0.1,0-0.21,0-0.31,0C-491.11,62.76-493.82,62.76-496.53,62.76z"/>
<path class="st3" d="M-496.53,62.76c2.71,0,5.42,0,8.11,0c0.1,0,0.21,0,0.31,0c0.28-1.48,0.53-2.96,0.81-4.44c0-2.68,0-5.36,0-8.04
	c-0.04-0.1-0.1-0.21-0.15-0.31c-2.75,0-5.5,0-8.26,0C-495.18,54.2-495.48,58.47-496.53,62.76z"/>
<path class="st3" d="M-625.68,62.76c2.8,0,5.6,0,8.41,0c-0.93-4.14-1.09-8.42-0.59-12.79c-2.77,0-5.54,0-8.32,0
	C-626.63,54.31-626.48,58.58-625.68,62.76z"/>
<line class="st5" x1="-557.68" y1="335.7" x2="-557.02" y2="133.19"/>
<path class="st0" d="M-582.08,36.69"/>
<path class="st6" d="M-572.8,114.54"/>
<g>
	<path class="st7" d="M-556.61,89.81c-1.02,0.02-1.78-0.25-2.58-0.88c-5.02-4.02-10.08-7.99-15.13-11.97
		c-1.34-1.05-2.77-1.94-4.41-2.39c-0.63-0.18-1.31-0.38-1.81,0.2c-0.46,0.53-0.28,1.19-0.1,1.8c0.51,1.73,1.46,3.2,2.56,4.57
		c3.66,4.54,7.33,9.06,10.98,13.6c1,1.24,2.43,2.33,1.59,4.02c-0.02,6.46,5.57,10.98,11.27,9.4c4.42-1.23,7.35-5.67,6.72-10.18
		C-548.19,93.11-551.92,89.72-556.61,89.81z"/>
	<ellipse class="st7" cx="-556.78" cy="98.26" rx="9.13" ry="9.5"/>
</g>
<g>
	<path class="st1" d="M-535.4,106.84c3.12-1.4,6.18-2.93,9.13-4.68c0.6-0.4,1.2-0.8,1.8-1.19c0.91-0.66,1.81-1.32,2.72-1.98
		c0,0,0,0,0,0c1.06-0.93,2.13-1.84,3.18-2.77c1.05-0.93,2.08-1.89,3.05-2.93c0.5-0.54,0.73-1,0.52-1.76
		c-0.3-1.09-0.47-2.23-0.72-3.34c-0.12-0.53-0.1-0.86,0.51-1.06c2.02-0.64,4.03-1.35,6.04-2.03c0.52-0.28,0.68-0.9,1.1-1.27
		c0,0,0,0,0,0c0.3-0.45,0.44-0.88,0.42-1.31c-0.01-0.11-0.02-0.21-0.05-0.32c-0.08-0.32-0.25-0.63-0.51-0.94
		c-0.69-0.82-1.51-0.74-2.4-0.42c-1.93,0.7-3.88,1.35-5.81,2.06c-0.6,0.22-0.91,0.19-1.18-0.51c-0.83-2.21-1.87-4.32-3.12-6.31
		c-0.41-0.65-0.31-1,0.27-1.42c1.68-1.22,3.34-2.48,4.98-3.75c1.18-0.91,1.34-1.91,0.55-3.04c-0.83-1.19-1.84-1.37-3.05-0.47
		c-1.67,1.23-3.34,2.48-4.98,3.76c-0.51,0.4-0.81,0.51-1.28-0.09c-1.43-1.85-3.03-3.55-4.8-5.05c-0.55-0.47-0.52-0.81-0.11-1.35
		c1.23-1.66,2.42-3.35,3.6-5.04c0.91-1.3,0.8-2.33-0.31-3.18c-1.15-0.88-2.2-0.69-3.12,0.59c-1.18,1.65-2.36,3.29-3.51,4.96
		c-0.4,0.59-0.74,0.74-1.38,0.29c-1.89-1.33-3.91-2.43-6.03-3.32c-0.67-0.28-0.84-0.56-0.57-1.3c0.73-1.99,1.38-4.01,2.04-6.02
		c0.48-1.49,0.06-2.39-1.29-2.88c-1.33-0.48-2.26-0.01-2.75,1.43c-0.7,2.04-1.4,4.09-2.04,6.15c-0.2,0.64-0.43,0.74-1.05,0.57
		c-2.23-0.63-4.5-1.12-6.82-1.26c-0.76-0.05-0.92-0.42-0.89-1.14c0.07-2.13,0.1-4.27,0.11-6.4c0.01-1.54-0.72-2.34-2.1-2.34
		c-1.32,0-2.05,0.76-2.1,2.23c-0.08,2.17-0.15,4.34-0.17,6.52c-0.01,0.71-0.19,0.94-0.9,0.95c-2.24,0.04-4.46,0.34-6.65,0.85
		c-0.67,0.16-0.96,0-1.14-0.69c-0.51-1.98-1.06-3.95-1.62-5.91c-0.43-1.51-1.34-2.11-2.6-1.75c-1.45,0.42-1.93,1.38-1.49,3
		c0.54,1.97,1.06,3.95,1.63,5.91c0.17,0.58,0.15,0.89-0.49,1.12c-2.27,0.8-4.45,1.83-6.51,3.1c-0.55,0.34-0.84,0.26-1.18-0.29
		c-1.1-1.8-2.24-3.57-3.39-5.34c-0.86-1.32-1.8-1.55-2.99-0.76c-1.19,0.79-1.4,1.88-0.57,3.23c1.09,1.76,2.19,3.51,3.33,5.23
		c0.36,0.55,0.46,0.86-0.14,1.33c-1.89,1.47-3.64,3.12-5.22,4.94c-0.45,0.52-0.73,0.45-1.19,0.04c-1.57-1.37-3.17-2.7-4.77-4.04
		c-1.2-1-2.18-0.92-3.06,0.21c-0.84,1.08-0.69,2.2,0.46,3.16c1.59,1.35,3.17,2.71,4.79,4.02c0.48,0.39,0.6,0.66,0.2,1.22
		c-1.35,1.91-2.51,3.95-3.45,6.12c-0.32,0.75-0.68,0.76-1.32,0.48c-1.79-0.77-3.59-1.49-5.4-2.21c-1.51-0.6-2.46-0.22-2.96,1.17
		c-0.5,1.39-0.05,2.29,1.46,2.92c1.73,0.71,3.44,1.47,5.19,2.11c0.89,0.32,1.02,0.74,0.73,1.64c-0.45,1.38-0.73,2.81-1.09,4.22
		c-0.17,0.66-0.01,1.18,0.47,1.7c0.56,0.62,1.14,1.22,1.73,1.8c1.77,1.76,3.65,3.39,5.55,5c0.91,0.66,1.81,1.32,2.72,1.98
		c0.6,0.4,1.2,0.8,1.8,1.19c2.95,1.76,6.01,3.28,9.13,4.68c0,0,0,0,0,0c1.52,0.52,3.03,1.03,4.55,1.55
		c1.52,0.39,3.05,0.78,4.57,1.18c0.75,0.14,1.51,0.27,2.27,0.39c2.27,0.36,4.55,0.61,6.85,0.77c1.52,0,3.04,0,4.57,0
		c3.06-0.21,6.1-0.6,9.11-1.16c1.52-0.39,3.05-0.78,4.57-1.18C-538.43,107.87-536.92,107.36-535.4,106.84z M-554.24,108.16
		c-5.7,1.58-11.28-2.93-11.27-9.4c0.83-1.69-0.6-2.78-1.59-4.02c-3.65-4.54-7.32-9.07-10.98-13.6c-1.1-1.37-2.05-2.84-2.56-4.57
		c-0.18-0.61-0.36-1.27,0.1-1.8c0.51-0.58,1.18-0.38,1.81-0.2c1.64,0.46,3.07,1.34,4.41,2.39c5.05,3.98,10.11,7.95,15.13,11.97
		c0.8,0.64,1.56,0.9,2.58,0.88c4.69-0.1,8.42,3.3,9.1,8.17C-546.89,102.5-549.82,106.94-554.24,108.16z"/>
	<polygon class="st1" points="-548.92,120.61 -556.81,127.24 -590.3,98.79 -545.5,116.96 	"/>
	<polygon class="st1" points="-535.78,115.79 -544.15,117.32 -560.17,110.57 -529.32,103.87 	"/>
</g>
<g>
	<path class="st8" d="M188.95,191.49c-1.86-7.24-5.56-12.83-12.97-14.84c-3.65-0.99-7.37-0.89-10.99-0.02
		c-13.02,3.12-24.07,9.95-33.33,19.88c-4.32,4.64-6.78,10.33-7.13,16.84c-0.51,9.53,1.54,18.72,4.74,27.47
		c5.19,14.18,6.97,28.68,5.67,43.7c-0.5,5.76-1.47,11.49-0.74,17.32c0.92,7.35,3.3,13.97,8.37,19.34
		c9.52,10.08,24.22,9.12,32.3-2.18c4.1-5.73,6.15-12.29,6.45-19.39c0.37-8.8-1.58-17.26-5.05-25.12
		c-3.83-8.69-4.48-17.39-2.19-26.44c2.02-7.96,4.88-15.58,9.8-22.18c0.07-0.11,0.14-0.22,0.21-0.33
		C190.57,214.94,192.05,203.56,188.95,191.49z"/>
	<path class="st8" d="M183.97,168.17c2.16-2.7,3.11-5.85,3.18-9.09c-0.01-3.42-0.79-6.36-2.56-8.99
		c-4.01-5.94-11.42-6.37-16.01-0.94c-4.55,5.38-4.35,14.5,0.44,19.64C173.32,173.41,180,173.14,183.97,168.17z"/>
	<path class="st8" d="M162.1,171.32c2-3.53,1.63-8.3-0.87-11.37c-2.69-3.3-7.13-3.44-9.98-0.29c-1.67,1.85-2.39,4.09-2.43,6.6
		c-0.01,1.78,0.4,3.44,1.24,4.97C152.91,176.42,159.19,176.46,162.1,171.32z"/>
	<path class="st8" d="M137.22,170.01c-0.79,1.28-1.13,2.68-1.14,3.49c0,2.45,0.52,4.2,1.46,5.58c2.41,3.53,6.74,3.78,9.13,0.52
		c2.49-3.4,1.55-9.01-1.91-11.31C142.11,166.53,138.94,167.25,137.22,170.01z"/>
	<path class="st8" d="M133.92,188.72c0.47-0.16,0.89-0.4,1.27-0.71c0.19-0.15,0.36-0.33,0.52-0.51c0.81-0.93,1.27-2.25,1.27-3.73
		c0.02-0.85-0.13-1.65-0.42-2.4c-0.17-0.45-0.4-0.89-0.66-1.31c-1.2-1.9-3.24-2.87-5.04-2.43c-1.99,0.48-3.31,2.13-3.52,4.58
		c-0.14,1.62,0.34,3.12,1.26,4.44C129.93,188.52,132.09,189.35,133.92,188.72z"/>
	<path class="st8" d="M125.29,187.28c-1.96-0.03-3.53,1.88-3.51,4.29c0.02,2.57,2.03,4.86,4.24,4.84c2.01-0.02,3.43-1.75,3.41-4.16
		C129.41,189.65,127.47,187.32,125.29,187.28z"/>
</g>
<g>
	<path class="st8" d="M328.74,197.12c-0.28-0.32-0.56-0.65-0.83-0.97c-1.03-1.05-2.05-2.11-3.08-3.16
		c-4.17-3.6-8.55-6.89-13.31-9.61c-6.6-3.77-13.44-6.76-21.1-7.3c-8.94-0.64-15.79,3.7-18.72,12.54
		c-4.37,13.19-3.28,25.85,4.49,37.47c4.09,6.12,6.95,12.79,8.97,19.87c2.52,8.82,2.9,17.64-0.79,26.25
		c-3.08,7.17-5.21,14.58-5.83,22.4c-0.73,9.16,1.37,17.61,6.8,24.92c7.28,9.79,19.58,11.45,29.16,4.1
		c4.68-3.59,7.66-8.45,9.49-14.14c2.39-7.4,1.98-14.91,1.1-22.51c-1.51-13.11-0.89-26.12,3.04-38.75c2.3-7.4,4.89-14.69,6.25-22.36
		c-0.03-0.14-0.03-0.26,0-0.38c0.03-0.12,0.09-0.23,0.19-0.33v0l0,0v0l0,0c0.03-0.29,0.06-0.57,0.09-0.86
		c0.03-0.29,0.06-0.57,0.11-0.86c0.71-4.56,0.85-8.98,0.09-13.21c-0.76-4.23-2.41-8.26-5.28-12.01
		C329.29,197.85,329.02,197.48,328.74,197.12z"/>
	<path class="st8" d="M274.66,166.6c3.62,6.26,11.26,7.33,16.02,2.25c4.84-5.16,5.03-14.41,0.42-19.77
		c-4.29-4.99-10.85-5-15.14-0.01c-2.22,2.58-3.14,5.7-3.42,9.08c0.01,0.64,0.01,1.28,0.02,1.91c0.14,0.84,0.27,1.67,0.41,2.51
		c0.28,0.85,0.56,1.7,0.84,2.55C274.09,165.61,274.37,166.1,274.66,166.6z"/>
	<path class="st8" d="M308.53,172.87c1.68-1.86,2.34-4.13,2.38-6.63c0.01-1.67-0.35-3.24-1.12-4.7c-1.33-2.53-3.27-4.14-6.16-4.13
		c-2.9,0.01-4.89,1.63-6.1,4.2c-1.74,3.7-1.55,7.36,0.85,10.71C300.94,175.92,305.59,176.13,308.53,172.87z"/>
	<path class="st8" d="M320.94,180.52c1.87-1.61,2.72-3.72,2.72-6.22c0-0.37,0.04-0.74-0.01-1.1c-0.34-2.43-1.36-4.43-3.62-5.43
		c-2.05-0.91-3.96-0.42-5.67,0.99c-2.89,2.38-3.59,7.43-1.5,10.57C314.77,182.21,318.35,182.75,320.94,180.52z"/>
	<path class="st8" d="M323.55,186.71c0.81,1.42,2,2.18,3.84,2.2c2.05-0.08,3.54-1.38,4.45-3.42c0.98-2.21,0.96-4.4-0.57-6.38
		c-1.27-1.64-3.17-2.03-5.06-1.14C323.18,179.41,321.86,183.73,323.55,186.71z"/>
	<path class="st8" d="M335.88,187.58c-0.98-0.47-1.97-0.39-2.92,0.12c-1.79,0.97-2.51,2.62-2.68,4.62c0.03,0.42,0.06,0.84,0.09,1.26
		c0.05,0.11,0.1,0.23,0.15,0.34c0.05,0.21,0.11,0.41,0.16,0.62c0.32,0.19,0.5,0.49,0.62,0.84l0,0v0c0.17,0.11,0.34,0.23,0.51,0.34
		c2.03,1.31,4.35,0.56,5.55-1.81C338.56,191.54,337.86,188.54,335.88,187.58z"/>
</g>
<path class="st9" d="M292.61,104.44c-2.83,4.25-5.99,8.35-9.47,12.04c-4.78,5.07-9.96,9.75-15.06,14.48
	c-3.06,2.84-6.3,5.47-9.47,8.18c-3.47,2.97-6.95,5.92-10.43,8.87c-3.12,2.64-6.23,5.28-9.36,7.9c-1.2,1-2.4,2.01-3.66,2.92
	c-2.55,1.82-6.73,1.75-9.21-0.22c-2.38-1.89-4.66-3.92-6.98-5.89c-3.48-2.96-6.95-5.92-10.43-8.87c-3.18-2.7-6.42-5.32-9.55-8.09
	c-5.11-4.53-10.16-9.13-15.21-13.72c-3.58-3.25-6.81-6.85-9.87-10.63c-3.6-4.44-6.66-9.17-9.05-14.44c-1.4-3.11-2.39-6.26-3-9.47
	c-18.86,0-37.72-0.01-56.58,0.01c-2.43,0-4.86-0.14-7.29,0.25c-6.62,1.08-12.43,7.62-12.63,14.32c-0.25,0.86-0.22,1.74-0.22,2.61
	c0,10.09,0,20.18,0,30.26c0,28.98,0,57.96,0,86.94c0,44.3,0,88.59,0,132.89c0,0.87-0.07,1.76,0.2,2.61
	c0.18,7.89,7.73,15.12,15.23,14.57c0.2,0.01,0.4,0.03,0.6,0.04c0.7,0.09,1.4,0.13,2.1,0.12s1.4-0.04,2.1-0.1
	c0.15,0.06,0.3,0.08,0.45,0.07c0.07-0.01,0.15-0.02,0.22-0.04c0.07-0.02,0.15-0.05,0.22-0.08c0.15,0.05,0.3,0.08,0.45,0.11
	c0.45,0.07,0.9,0.04,1.35-0.06c0.14,0.09,0.29,0.12,0.43,0.07c0.05-0.02,0.1-0.04,0.14-0.07c0.22,0.01,0.44,0.04,0.67,0.05
	c0.22,0.02,0.44,0.03,0.67,0.03c27.33,0,54.67,0,82,0c24.85,0,49.7,0,74.55-0.01c0.4,0,0.79-0.02,1.19-0.04
	c0.4-0.02,0.79-0.05,1.19-0.06c0,0,0,0,0,0c0.3,0,0.59,0.01,0.89,0.01c0.75,0.08,1.5,0.12,2.25,0.12c0.37,0,0.75-0.01,1.12-0.03
	c0.37-0.02,0.75-0.05,1.12-0.09c0,0,0,0,0,0c0.29,0,0.59,0,0.88,0c0.12,0.04,0.25,0.07,0.38,0.09c0.38,0.06,0.75,0.02,1.13-0.06
	c0.19,0,0.38,0,0.57,0c0.3,0.01,0.59,0.03,0.89,0.05c0.3,0.02,0.59,0.03,0.89,0.03c23.97,0,47.94,0.01,71.9,0
	c3.82,0,7.65,0.16,11.47-0.12c6.85-0.5,13.26-7.06,13.65-13.94c0.27-0.51,0.26-1.05,0.2-1.6c0.02-0.21,0.06-0.41,0.06-0.62
	c0-28.68-0.01-57.35-0.02-86.03c0-0.41-0.04-0.82-0.06-1.24c0-0.32,0-0.63-0.01-0.95c0.01-0.92,0.01-1.84,0.02-2.76
	c0-0.01,0-0.01,0-0.02v0c-0.01-0.42-0.02-0.84-0.04-1.26c0-0.2,0-0.4,0-0.6c0-0.11,0.01-0.22,0.01-0.33c0-0.11,0.01-0.22,0.01-0.33
	c0.02-0.57,0.06-1.13,0.06-1.7c0-52.02,0-104.04,0-156.06c0-0.26-0.01-0.52-0.02-0.77c-0.01-0.26-0.03-0.52-0.04-0.77
	c0.07-0.34,0.07-0.67-0.03-0.99c-0.03-0.11-0.08-0.21-0.14-0.31c-0.02-0.31-0.05-0.62-0.09-0.93c-0.08-0.61-0.2-1.21-0.37-1.79
	c-0.41-1.46-1.06-2.82-1.94-4.09c-0.06-0.1-0.11-0.2-0.17-0.31c-0.19-0.31-0.4-0.62-0.61-0.92c-0.64-0.89-1.38-1.68-2.27-2.32
	c-0.27-0.22-0.54-0.45-0.8-0.67c-0.02-0.01-0.03-0.03-0.05-0.04c-0.34-0.27-0.68-0.53-1.03-0.76c-2.44-1.64-5.19-2.36-8.12-2.36
	c-20.38-0.02-40.75-0.01-61.13-0.01c-0.21,1.14-0.44,2.27-0.72,3.39C297.49,95.78,295.35,100.34,292.61,104.44z"/>
<path class="st10" d="M388.65,284.55c-0.03-0.54-0.08-1.09-0.08-1.63c0-10.86-0.01-21.72,0-32.59c0-1.98,0.04-3.96,0.07-5.95
	c0-0.1,0-0.2,0-0.3c-0.01-0.2-0.03-0.39-0.04-0.59c-0.01-0.2-0.03-0.39-0.03-0.59c0-27.19,0-54.38,0-81.57
	c0-0.39,0.04-0.79,0.06-1.18c-0.01-0.3-0.01-0.61-0.02-0.91c-0.02-3.57-0.05-7.14-0.04-10.71c0.01-10.61,0.03-21.22,0.04-31.83
	c0.01-0.21,0.02-0.42,0.03-0.63c-0.01-4.56-0.02-9.11-0.04-13.67c-0.01-0.1-0.02-0.2-0.02-0.31c-0.06-1.67-0.2-3.33-0.52-4.98
	c-1.01-5.26-3.5-9.76-7-13.75c-0.87-0.81-1.74-1.61-2.62-2.42c-5.02-3.9-10.67-6.12-17.07-6.3c-5.37,0.02-10.74,0.05-16.11,0.05
	c-15.06,0-30.12,0-45.17-0.01c0.05,0.1,0.11,0.2,0.15,0.3c0,2.57,0,5.14,0,7.71c-0.28,1.41-0.54,2.84-0.81,4.25
	c20.38,0,40.75-0.01,61.13,0.01c2.94,0,5.68,0.69,8.12,2.26c0.35,0.22,0.69,0.47,1.03,0.73c0.02,0.01,0.03,0.03,0.05,0.04
	c0.27,0.21,0.54,0.43,0.8,0.64c0.89,0.62,1.63,1.38,2.27,2.23c0.21,0.28,0.42,0.58,0.61,0.88c0.06,0.1,0.11,0.2,0.17,0.29
	c0.88,1.22,1.54,2.52,1.94,3.92c0.16,0.56,0.29,1.13,0.37,1.72c0.04,0.29,0.07,0.59,0.09,0.89c0.06,0.1,0.11,0.2,0.14,0.3
	c0.1,0.3,0.1,0.62,0.03,0.95c0.01,0.25,0.03,0.49,0.04,0.74c0.01,0.25,0.02,0.49,0.02,0.74c0,49.85,0,99.71,0,149.56
	c0,0.54-0.04,1.09-0.06,1.63c0,0.11-0.01,0.21-0.01,0.32c0,0.11-0.01,0.21-0.01,0.32c0,0.19,0,0.38,0,0.58
	c0.01,0.4,0.02,0.8,0.04,1.2v0c0,0.01,0,0.01,0,0.02c-0.01,0.88-0.01,1.76-0.02,2.64c0,0.3,0,0.61,0.01,0.91
	c0.02,0.4,0.06,0.79,0.06,1.19c0.01,27.48,0.02,54.96,0.02,82.44c0,0.2-0.04,0.39-0.06,0.59c0.07,0.53,0.08,1.05-0.2,1.54
	c-0.39,6.59-6.8,12.88-13.65,13.36c-3.82,0.27-7.65,0.11-11.47,0.11c-23.97,0.01-47.94,0.01-71.9,0c-0.3,0-0.59-0.01-0.89-0.03
	c-0.3-0.01-0.59-0.03-0.89-0.04c-0.19,0-0.38,0-0.57,0c-0.38,0.07-0.76,0.11-1.13,0.06c-0.13-0.02-0.25-0.05-0.38-0.09
	c-0.29,0-0.59,0-0.88,0c0,0,0,0,0,0c-0.37,0.04-0.75,0.07-1.12,0.09c-0.37,0.02-0.75,0.03-1.12,0.03c-0.75,0-1.5-0.04-2.25-0.11
	c-0.3,0-0.59-0.01-0.89-0.01c0,0,0,0,0,0c-0.4,0.02-0.79,0.04-1.19,0.06c-0.4,0.02-0.79,0.04-1.19,0.04
	c-24.85,0.01-49.7,0.01-74.55,0.01c-27.33,0-54.67,0-82,0c-0.22,0-0.44-0.01-0.67-0.03c-0.22-0.02-0.44-0.04-0.67-0.05
	c-0.05,0.03-0.1,0.05-0.14,0.07c-0.14,0.05-0.29,0.02-0.43-0.07c-0.45,0.09-0.91,0.12-1.35,0.06c-0.15-0.02-0.3-0.06-0.45-0.1
	c-0.07,0.03-0.14,0.06-0.22,0.08c-0.07,0.02-0.15,0.03-0.22,0.04c-0.15,0.01-0.3-0.01-0.45-0.07c-0.7,0.05-1.4,0.09-2.1,0.09
	c-0.7,0-1.4-0.03-2.1-0.12c-0.2-0.01-0.4-0.02-0.6-0.04c-7.49,0.53-15.04-6.39-15.23-13.96c-0.27-0.82-0.2-1.67-0.2-2.5
	c0-42.45,0-84.9,0-127.35c0-27.77,0-55.54,0-83.31c0-9.67,0-19.34,0-29c0-0.84-0.03-1.69,0.22-2.51c0.2-6.41,6.01-12.69,12.63-13.72
	c2.43-0.38,4.86-0.24,7.29-0.24c18.86-0.01,37.72-0.01,56.58-0.01c-0.8-4.01-0.95-8.09-0.5-12.26c-20.31,0-40.63,0.01-60.94,0
	c-0.15,0-0.3-0.03-0.44-0.05c-2.79,0.1-5.51,0.56-8.16,1.43c-10.13,3.34-18.8,13.01-19.06,26.02c0,0.1-0.01,0.21-0.01,0.31v0
	c0,10.61-0.01,21.22-0.01,31.83c0,0.61,0,1.21,0,1.82v0c0,0.68,0,1.37,0,2.05c-0.01,0.4-0.02,0.8-0.03,1.2
	c0.03,0.25,0.06,0.5,0.07,0.74c0.05,0.74,0.02,1.49-0.07,2.23c0.01,0.4,0.02,0.8,0.03,1.21v0c-0.01,0.39-0.02,0.77-0.03,1.16
	c0,0.21,0,0.42,0,0.63c0.01,0.19,0.02,0.38,0.03,0.56c0,0.11,0,0.22,0,0.32c0.02,0.35,0.04,0.69,0.04,1.04
	c0,51.39,0,102.77,0,154.16c0,0.35-0.03,0.69-0.04,1.04c0,0.7,0,1.41-0.01,2.11c0,0.59,0,1.17,0.01,1.76v0v0c0,0.3,0,0.6-0.01,0.9
	c0,0.3,0,0.6-0.01,0.9c-0.01,0.89-0.01,1.79-0.02,2.68c0.01,0.4,0.02,0.8,0.03,1.21v0c-0.01,0.39-0.02,0.77-0.03,1.16
	c0,0.21,0,0.42,0,0.63c0.01,10.21,0.02,20.42,0.03,30.63c0,0.1,0.01,0.21,0.01,0.31c0.06,1.63,0.18,3.26,0.53,4.87
	c2.91,13.56,14,22.51,27.91,22.51c13.13,0,26.26,0,39.38,0c55.05,0,110.1,0,165.15,0c0.65,0,1.29,0.03,1.94,0.05
	c0.11,0,0.21-0.01,0.32-0.01c0.55-0.01,1.09-0.04,1.64-0.04c17.15,0,34.3-0.01,51.46,0c2.5,0,4.94-0.39,7.34-1.07
	c10.68-3.01,19.9-13,20.19-26.31c0-0.1,0.01-0.21,0.01-0.31c0.01-5.26,0.02-10.51,0.02-15.77c0-0.16,0-0.32,0-0.48c0,0,0,0,0,0
	c-0.01-1.34-0.03-2.67-0.04-4.01s-0.02-2.67-0.02-4.01c0.01-11.65,0.03-23.29,0.04-34.94C388.63,284.97,388.64,284.76,388.65,284.55
	z"/>
<path class="st10" d="M169.77,73.92c0.46-3.47,1.24-6.85,2.72-9.98c2.39-5.06,5.71-9.43,10.28-12.51
	c7.22-4.85,15.12-6.48,23.59-4.57c4.11,0.93,7.78,2.82,11.11,5.57c3.43,2.83,6.36,6.07,8.61,9.95c1.95,3.35,7.03,3.58,9.27,0.01
	c1.69-2.7,3.64-5.31,5.87-7.54c6.92-6.94,15.19-9.86,24.8-8.36c6.09,0.95,11.54,3.3,15.95,7.86c1.53,1.58,3.08,3.23,4.26,5.09
	c3.18,5.01,5,10.11,5.63,15.26c2.75,0,5.5,0,8.26,0c-0.04-0.09-0.08-0.19-0.09-0.28c-0.52-4.46-1.32-8.81-3.34-12.89
	c-1.51-3.04-2.94-6.07-5.06-8.76c-2.53-3.21-5.39-6.02-8.7-8.25c-4.82-3.26-10.13-5.26-15.87-6.09c-6.96-1.01-13.71-0.28-20.14,2.6
	c-5.16,2.31-9.7,5.63-13.39,10.12c-0.9,1.1-1.9,2.11-2.62,2.91c-2.83-2.71-5.54-5.53-8.49-8.06c-5.33-4.57-11.54-7.04-18.4-7.76
	c-9.52-1.01-18.31,1.25-26.25,6.76c-3.9,2.7-7.26,6.15-9.77,10.26c-1.91,3.12-3.43,6.54-4.75,9.98c-0.89,2.32-1.28,4.89-1.64,7.39
	c-0.1,0.69-0.18,1.38-0.25,2.07c2.77,0,5.54,0,8.32,0C169.71,74.44,169.74,74.18,169.77,73.92z"/>
<path class="st10" d="M291.02,87.49c-0.73,3.02-1.83,6.04-3.27,9.07c-2.46,5.18-6.15,9.6-9.99,13.79c-2.95,3.22-6.03,6.31-9.24,9.24
	c-5.04,4.61-10.22,9.06-15.38,13.53c-2.92,2.53-5.91,4.98-8.87,7.47c-4.52,3.8-9.03,7.59-13.54,11.38c-1.25-0.99-2.46-1.9-3.6-2.88
	c-2.75-2.34-5.45-4.74-8.2-7.09c-5.12-4.37-10.27-8.71-15.39-13.1c-2.93-2.51-5.9-4.99-8.71-7.66c-3.79-3.59-7.46-7.31-11.12-11.05
	c-1.48-1.52-2.75-3.27-4.18-4.85c-2.92-3.24-5.08-7.03-6.91-10.96c-1.05-2.25-1.82-4.55-2.35-6.89c-2.8,0-5.6,0-8.41,0
	c0.61,3.21,1.6,6.36,3,9.47c2.38,5.27,5.45,10,9.05,14.44c3.07,3.78,6.29,7.38,9.87,10.63c5.05,4.59,10.1,9.2,15.21,13.72
	c3.12,2.77,6.36,5.39,9.55,8.09c3.48,2.95,6.95,5.92,10.43,8.87c2.32,1.97,4.6,4,6.98,5.89c2.48,1.97,6.66,2.04,9.21,0.22
	c1.27-0.9,2.47-1.91,3.66-2.92c3.13-2.62,6.25-5.26,9.36-7.9c3.48-2.95,6.96-5.9,10.43-8.87c3.17-2.71,6.41-5.34,9.47-8.18
	c5.1-4.73,10.28-9.41,15.06-14.48c3.48-3.69,6.64-7.79,9.47-12.04c2.74-4.11,4.88-8.66,6.11-13.56c0.28-1.12,0.51-2.25,0.72-3.39
	c-0.1,0-0.21,0-0.31,0C296.44,87.49,293.73,87.49,291.02,87.49z"/>
<path class="st10" d="M291.02,87.49c2.71,0,5.42,0,8.11,0c0.1,0,0.21,0,0.31,0c0.28-1.48,0.53-2.96,0.81-4.44c0-2.68,0-5.36,0-8.04
	c-0.04-0.1-0.1-0.21-0.15-0.31c-2.75,0-5.5,0-8.26,0C292.36,78.93,292.06,83.21,291.02,87.49z"/>
<path class="st10" d="M161.87,87.5c2.8,0,5.6,0,8.41,0c-0.93-4.14-1.09-8.42-0.59-12.79c-2.77,0-5.54,0-8.32,0
	C160.92,79.05,161.07,83.32,161.87,87.5z"/>
<line class="st11" x1="229.87" y1="360.44" x2="230.53" y2="157.93"/>
<path class="st0" d="M205.46,61.43"/>
<path class="st12" d="M214.74,139.27"/>
<g>
	<path class="st13" d="M252.14,131.58c3.12-1.4,6.18-2.93,9.13-4.68c0.6-0.4,1.2-0.8,1.8-1.19c0.91-0.66,1.81-1.32,2.72-1.98
		c0,0,0,0,0,0c1.06-0.93,2.13-1.84,3.18-2.77c1.05-0.93,2.08-1.89,3.05-2.93c0.5-0.54,0.73-1,0.52-1.76
		c-0.3-1.09-0.47-2.23-0.72-3.34c-0.12-0.53-0.1-0.86,0.51-1.06c2.02-0.64,4.03-1.35,6.04-2.03c0.52-0.28,0.68-0.9,1.1-1.27
		c0,0,0,0,0,0c0.3-0.45,0.44-0.88,0.42-1.31c-0.01-0.11-0.02-0.21-0.05-0.32c-0.08-0.32-0.25-0.63-0.51-0.94
		c-0.69-0.82-1.51-0.74-2.4-0.42c-1.93,0.7-3.88,1.35-5.81,2.06c-0.6,0.22-0.91,0.19-1.18-0.51c-0.83-2.21-1.87-4.32-3.12-6.31
		c-0.41-0.65-0.31-1,0.27-1.42c1.68-1.22,3.34-2.48,4.98-3.75c1.18-0.91,1.34-1.91,0.55-3.04c-0.83-1.19-1.84-1.37-3.05-0.47
		c-1.67,1.23-3.34,2.48-4.98,3.76c-0.51,0.4-0.81,0.51-1.28-0.09c-1.43-1.85-3.03-3.55-4.8-5.05c-0.55-0.47-0.52-0.81-0.11-1.35
		c1.23-1.66,2.42-3.35,3.6-5.04c0.91-1.3,0.8-2.33-0.31-3.18c-1.15-0.88-2.2-0.69-3.12,0.59c-1.18,1.65-2.36,3.29-3.51,4.96
		c-0.4,0.59-0.74,0.74-1.38,0.29c-1.89-1.33-3.91-2.43-6.03-3.32c-0.67-0.28-0.84-0.56-0.57-1.3c0.73-1.99,1.38-4.01,2.04-6.02
		c0.48-1.49,0.06-2.39-1.29-2.88c-1.33-0.48-2.26-0.01-2.75,1.43c-0.7,2.04-1.4,4.09-2.04,6.15c-0.2,0.64-0.43,0.74-1.05,0.57
		c-2.23-0.63-4.5-1.12-6.82-1.26c-0.76-0.05-0.92-0.42-0.89-1.14c0.07-2.13,0.1-4.27,0.11-6.4c0.01-1.54-0.72-2.34-2.1-2.34
		c-1.32,0-2.05,0.76-2.1,2.23c-0.07,2.17-0.15,4.34-0.17,6.52c-0.01,0.71-0.19,0.94-0.9,0.95c-2.24,0.04-4.46,0.34-6.65,0.85
		c-0.67,0.16-0.96,0-1.14-0.69c-0.51-1.98-1.06-3.95-1.62-5.91c-0.43-1.51-1.34-2.11-2.6-1.75c-1.45,0.42-1.93,1.38-1.49,3
		c0.54,1.97,1.06,3.95,1.63,5.91c0.17,0.58,0.15,0.89-0.49,1.12c-2.27,0.8-4.45,1.83-6.51,3.1c-0.55,0.34-0.84,0.26-1.18-0.29
		c-1.1-1.8-2.24-3.57-3.39-5.34c-0.86-1.32-1.8-1.55-2.99-0.76c-1.19,0.79-1.4,1.88-0.57,3.23c1.09,1.76,2.19,3.51,3.33,5.23
		c0.36,0.55,0.46,0.86-0.14,1.33c-1.89,1.47-3.64,3.12-5.22,4.94c-0.45,0.52-0.73,0.45-1.19,0.04c-1.57-1.37-3.17-2.7-4.77-4.04
		c-1.2-1-2.18-0.92-3.06,0.21c-0.84,1.08-0.69,2.2,0.46,3.16c1.59,1.35,3.17,2.71,4.79,4.02c0.48,0.39,0.6,0.66,0.2,1.22
		c-1.35,1.91-2.51,3.95-3.45,6.12c-0.32,0.75-0.68,0.76-1.32,0.48c-1.79-0.77-3.59-1.49-5.4-2.21c-1.51-0.6-2.46-0.22-2.96,1.17
		c-0.5,1.39-0.05,2.29,1.46,2.92c1.73,0.71,3.44,1.47,5.19,2.11c0.89,0.32,1.02,0.74,0.73,1.64c-0.45,1.38-0.73,2.81-1.09,4.22
		c-0.17,0.66-0.01,1.18,0.47,1.7c0.56,0.62,1.14,1.22,1.73,1.8c1.77,1.76,3.65,3.39,5.55,5c0.91,0.66,1.81,1.32,2.72,1.98
		c0.6,0.4,1.2,0.8,1.8,1.19c2.95,1.76,6.01,3.28,9.13,4.68c0,0,0,0,0,0c1.52,0.52,3.03,1.03,4.55,1.55
		c1.52,0.39,3.05,0.78,4.57,1.18c0.75,0.14,1.51,0.27,2.27,0.39c2.27,0.36,4.55,0.61,6.85,0.77c1.52,0,3.04,0,4.57,0
		c3.06-0.21,6.1-0.6,9.11-1.16c1.52-0.39,3.05-0.78,4.57-1.18C249.11,132.61,250.63,132.1,252.14,131.58z M233.31,132.9
		c-5.7,1.58-11.28-2.93-11.27-9.4c0.83-1.69-0.6-2.78-1.59-4.02c-3.65-4.54-7.32-9.07-10.98-13.6c-1.1-1.37-2.05-2.84-2.56-4.57
		c-0.18-0.61-0.36-1.27,0.1-1.8c0.51-0.58,1.18-0.38,1.81-0.2c1.64,0.46,3.07,1.34,4.41,2.39c5.05,3.98,10.11,7.95,15.13,11.97
		c0.8,0.64,1.56,0.9,2.58,0.88c4.69-0.1,8.42,3.3,9.1,8.17C240.66,127.24,237.73,131.68,233.31,132.9z"/>
	<polygon class="st13" points="238.62,145.35 230.73,151.97 197.25,123.53 242.04,141.7 	"/>
	<polygon class="st13" points="251.76,140.53 243.39,142.06 227.37,135.3 258.22,128.61 	"/>
</g>
</svg>
