<svg width="223" height="249" viewBox="0 0 223 249" fill="none" xmlns="http://www.w3.org/2000/svg">
<g opacity="0.4">
<path d="M145.425 60.9412C139.44 57.7184 132.192 58.8992 125.914 56.6056C118.22 53.7608 117.903 43.2498 109.946 41.2485C107.274 40.8413 104.549 40.9149 101.902 41.466C99.3627 42.0453 96.703 41.7329 94.3707 40.5814C92.0385 39.43 90.1765 37.51 89.0986 35.1451C86.2488 30.3773 82.3476 24.201 76.0575 27.9782C71.1208 30.8744 70.5823 36.3841 71.0209 41.5551C70.4923 41.2805 69.9495 40.9771 69.3634 40.7308C58.7949 36.8407 54.5714 48.8754 55.6058 57.1421C56.831 66.8844 60.8706 75.9536 49.4501 81.5808C44.7035 83.9196 40.4172 86.0315 39.1897 91.6667C38.7356 93.7887 38.7552 95.9838 39.2472 98.0958C34.5147 96.1822 29.1977 95.9122 25.3998 100.031C23.9991 101.473 23.1186 103.339 22.8976 105.335C22.6766 107.33 23.1276 109.341 24.1794 111.05C25.9999 113.307 28.3661 115.063 31.0553 116.153C33.9365 117.257 36.3201 119.364 37.7681 122.085C38.9611 124.715 39.2587 127.663 38.6152 130.48C37.8928 135.617 36.4757 141.738 40.0588 146.18C41.8611 148.142 44.3553 149.329 47.0183 149.493C52.8323 150.482 56.0897 152.159 57.7996 158.023C59.4407 163.458 60.1734 169.662 66.1952 171.725C73.6033 174.425 80.55 168.933 87.8207 168.597C96.583 168.168 100.937 177.368 109.322 177.625C114.21 177.749 118.589 174.664 123.616 175.434C128.642 176.203 133.146 180.264 137.414 182.905C146.657 189.093 157.189 193.101 168.216 194.628C168.334 194.605 168.443 194.551 168.533 194.472C176.566 198.077 185.295 200.483 193.458 197.46C198.504 195.324 202.806 191.745 205.822 187.173C208.838 182.602 210.432 177.243 210.403 171.772C210.428 164.919 208.616 158.187 205.157 152.274C205.342 152.212 205.504 152.093 205.618 151.934C205.733 151.775 205.794 151.585 205.793 151.389C205.704 151.231 205.624 151.068 205.553 150.901L205.482 150.758C205.413 149.41 205.176 148.077 204.778 146.788L204.113 145.439L204.028 145.266C199.04 127.888 171.679 131.13 171.124 111.283C171.313 108.391 170.838 105.496 169.735 102.818C168.632 100.14 166.931 97.7501 164.761 95.8306C161.204 93.1927 158.09 90.0068 155.535 86.3919C153.848 82.317 152.841 77.993 152.552 73.591C152.416 71.0763 151.702 68.6275 150.466 66.4341C149.231 64.2406 147.506 62.3612 145.425 60.9412ZM137.349 179.869C130.383 175.382 125.35 171.19 116.705 173.309C111.119 174.67 107.402 175.324 102.191 172.005C99.2691 169.526 95.9605 167.541 92.3961 166.129C82.9508 163.647 72.8163 174.206 64.5309 167.622C58.8253 163.298 60.9344 154.445 55.4175 149.779C52.7373 147.532 49.5961 147.759 46.4037 147.085C38.2881 145.126 39.3677 138.029 40.285 131.619C41.04 125.896 41.2484 120.442 36.4288 116.538C32.3793 113.253 27.0912 112.969 25.6217 107.592C23.2142 98.8604 33.3281 97.8371 39.6838 99.272C40.1112 100.611 40.7357 101.878 41.5367 103.033C42.9295 104.917 44.8139 106.382 46.9848 107.269C47.6851 107.602 48.415 107.778 49.1158 108.039C50.285 108.357 51.373 108.919 52.3076 109.688C53.2422 110.458 54.0021 111.417 54.537 112.503C55.0719 113.588 55.3696 114.776 55.4104 115.986C55.4512 117.195 55.2341 118.401 54.7736 119.521C53.4387 124.068 50.6164 128.063 50.6556 132.931C50.6201 135.284 51.5153 137.554 53.1467 139.248C54.7781 140.942 57.0141 141.924 59.369 141.981C66.7773 142.505 72.0665 136.188 79.1778 136.109C82.1804 136.157 85.0693 137.255 87.3408 139.213C89.6123 141.171 91.1223 143.865 91.6074 146.824C91.9222 149.603 92.593 152.33 93.6033 154.938C94.5471 156.724 96.0316 158.167 97.8454 159.06C99.6593 159.954 101.71 160.252 103.706 159.914C107.424 159.229 111.201 158.922 114.98 158.996C117.477 159.39 119.867 160.288 122.002 161.637C123.995 163.723 126.103 165.681 128.183 167.653L128.268 167.825C137.145 176.165 147.032 183.363 157.701 189.249L159.401 190.16C151.657 187.637 144.252 184.182 137.349 179.869ZM207.494 165.143C209.754 176.551 204.895 189.399 193.666 194.182C182.438 198.966 169.164 192.199 159.15 186.965C147.13 180.649 135.95 172.853 125.873 163.761C120.869 157.308 113.548 156.598 104.756 157.184C99.005 157.556 95.1897 155.69 93.9391 149.742C93.661 147.445 93.221 145.17 92.6226 142.934C91.9111 140.872 90.7747 138.982 89.2866 137.387C87.7984 135.791 85.9915 134.525 83.9823 133.67C81.8949 132.868 79.6616 132.512 77.4263 132.624C75.191 132.736 73.0032 133.314 71.0037 134.322C68.0956 135.936 64.9947 137.177 61.7753 138.012C57.384 138.678 52.4853 138.023 53.4107 130.396C53.9195 128.367 54.669 126.405 55.6432 124.551C58.7053 116.835 58.7569 109.104 50.6982 105.083C45.8978 102.596 40.73 101.468 41.3366 94.3549C41.7732 89.0737 46.1877 87.077 50.3443 85.0646C52.5913 84.2753 54.6171 82.9604 56.2524 81.2298C57.8877 79.4992 59.0848 77.4033 59.7436 75.1175C60.4792 69.9685 60.0787 64.7229 58.5703 59.7484C57.3506 55.8425 57.5979 51.6242 59.266 47.8823C62.1953 42.8713 67.6698 43.1707 71.4204 46.1389C71.4204 46.1389 71.5194 46.3398 71.5335 46.3686C72.0312 46.7594 72.5025 47.1827 72.9443 47.6356C79.8343 54.9436 80.4709 71.255 93.9097 70.3772C98.7287 70.0719 102.964 66.9861 107.754 66.695C109.913 66.4733 112.082 66.9872 113.91 68.153C115.737 69.3189 117.114 71.0683 117.819 73.1168C118.757 76.4003 117.144 79.6568 117.395 82.9225C117.375 83.8245 117.536 84.721 117.869 85.5591C118.202 86.3972 118.699 87.1599 119.332 87.8023C119.966 88.4447 120.721 88.9538 121.555 89.2994C122.389 89.6451 123.284 89.8203 124.187 89.8148C130.666 89.9045 136.475 80.9417 142.644 86.7141C150.238 93.8538 141.768 114.902 155.296 117.761C175.806 129.275 202.572 140.062 207.494 165.143ZM149.906 68.4376C153.159 75.0402 151.414 82.9636 155.773 89.271C158.1 92.1434 160.747 94.741 163.664 97.0136C168.765 101.635 169.653 106.121 170.039 112.781C171.105 131.271 194.755 129.785 201.803 143.509C201.82 143.582 201.854 143.651 201.902 143.71C202.153 144.474 202.51 145.198 202.963 145.863L203.345 146.638L203.812 147.585L203.982 147.929L204.165 148.303C204.259 148.957 204.398 149.603 204.583 150.238C202.185 146.528 199.316 143.145 196.048 140.172C190.109 134.954 183.541 130.496 176.496 126.902C173.039 125.038 169.467 123.23 165.924 121.408C163.052 119.934 160.065 118.587 157.28 116.998C150.253 112.968 149.586 105.591 149.047 98.3293C148.585 92.3135 148.02 84.5646 141.818 81.6271C136.916 79.2974 133.152 82.6147 128.996 84.627C127.307 85.6362 125.337 86.0688 123.382 85.859C119.591 84.623 120.805 81.0639 121.107 78.7029C121.537 76.3766 121.445 73.985 120.839 71.7001C120.272 69.8996 119.324 68.2424 118.059 66.8404C116.795 65.4384 115.243 64.3245 113.51 63.5738C107.705 61.2253 102.378 64.635 96.8489 66.0392C81.5976 69.9863 81.8848 48.4391 71.7348 41.9882C71.2583 38.9338 71.7399 35.8054 73.1135 33.0321C73.5808 31.9585 74.3094 31.0183 75.2331 30.2972C76.1567 29.576 77.2459 29.0969 78.4016 28.9034C79.5572 28.7099 80.7425 28.8082 81.8493 29.1894C82.9562 29.5705 83.9496 30.2224 84.7388 31.0856C87.3723 33.8908 88.1618 38.0327 90.9245 40.8098C95.4087 45.5572 100.928 43.4084 106.678 43.251C116.17 42.9978 117.432 55.7901 125.842 58.7816C134.252 61.7731 145.496 58.98 149.906 68.4376Z" fill="#909CFF"/>
<path d="M138.397 128.108C138.326 127.965 138.225 128.193 138.225 128.193C141.422 133.804 143.296 140.071 143.7 146.511C136.064 141.461 128.742 136.041 121.507 130.293C121.6 130.19 121.66 130.061 121.68 129.923C122.367 122.198 120.092 114.489 115.319 108.366C115.178 108.079 114.919 108.563 115.032 108.721C117.246 111.7 118.9 115.056 119.913 118.626C120.841 122.237 121.182 125.972 120.925 129.688C117.557 126.959 114.245 124.202 110.992 121.345C110.808 120.972 110.595 120.541 110.239 120.538L110.096 120.609C104.256 115.458 98.5596 110.166 93.1064 104.575C92.6093 104.07 92.2493 104.997 92.661 105.472C97.474 110.7 102.53 115.702 107.701 120.576C100.329 120.602 93.0467 118.9 86.4342 115.605C86.1923 115.474 86.119 115.974 86.3182 116.09C93.4531 120.121 101.473 122.302 109.647 122.436C115.538 127.906 121.663 133.13 128.021 138.109C121.997 140.141 115.505 140.363 109.342 138.749C109.057 138.676 109.069 139.205 109.311 139.264C115.628 141.302 122.402 141.395 128.757 139.53C128.873 139.498 128.975 139.429 129.05 139.335C129.124 139.24 129.167 139.125 129.173 139.004C133.593 142.428 138.1 145.738 142.75 148.906L150.074 153.754C145.792 155.534 141.237 156.572 136.603 156.823C136.403 156.922 136.43 157.265 136.787 157.196C141.937 157.378 147.07 156.569 151.909 154.812C167.173 165.096 183.77 173.223 201.232 178.963C202.471 179.316 202.58 176.872 201.655 176.436C191.921 171.812 181.812 168.087 172.151 163.178C165.833 159.94 159.645 156.388 153.557 152.68C153.512 152.567 153.433 152.472 153.331 152.407C153.228 152.342 153.109 152.311 152.988 152.318C150.101 150.565 147.199 148.855 144.397 146.988C144.471 146.859 144.496 146.707 144.47 146.56C144.053 139.995 141.962 133.641 138.397 128.108Z" fill="#909CFF"/>
</g>
</svg>
