<svg width="136" height="132" viewBox="0 0 136 132" fill="none" xmlns="http://www.w3.org/2000/svg">
<g opacity="0.4" clip-path="url(#clip0_432_1561)">
<path d="M26.8886 35.9553C27.2604 37.1898 27.2451 38.5078 26.8446 39.7317C26.3856 40.6461 25.8485 41.519 25.2394 42.341C24.8689 42.8159 24.6267 43.378 24.536 43.9736C24.4452 44.5692 24.509 45.1784 24.7212 45.743C25.2175 46.6183 26.0049 47.2928 26.9464 47.6493C27.7879 47.9683 28.5964 48.3687 29.3602 48.8448C30.8127 49.9864 30.4887 51.5235 30.9641 52.9735C32.3965 56.7074 36.6411 54.5228 39.4239 55.1185C42.2067 55.7142 42.298 58.6643 44.5719 58.7402C46.8457 58.816 47.6967 55.412 50.2409 57.4733C51.4434 58.213 52.1176 59.744 53.7882 59.6554C55.4587 59.5669 56.9866 58.0263 58.5964 57.3629C60.1416 57.8286 61.7226 58.1651 63.323 58.3689C65.0008 58.6148 66.6934 58.7444 68.3886 58.7565C68.5389 58.849 68.5991 58.886 68.6797 58.6875C69.8782 58.6732 71.0679 58.4861 72.2121 58.132C71.9511 60.9593 72.0648 63.8094 72.5503 66.6085C60.1756 66.0049 47.8392 68.3321 36.5479 73.4002C36.4188 73.6102 36.6271 73.9451 36.8581 73.8391C44.2337 70.934 51.9683 69.0317 59.8547 68.1831C60.2301 72.9617 53.1585 72.3322 50.3529 73.9964C49.464 74.5507 48.7968 75.3973 48.4656 76.3908C48.1779 77.33 48.369 78.7705 47.6536 79.5294C46.9382 80.2882 44.9042 79.8224 43.7434 79.1497C41.7293 77.9106 40.0158 76.8565 37.7787 78.5396C35.5416 80.2227 34.729 82.8235 32.4626 83.207C30.1962 83.5905 29.3457 81.5377 28.3114 80.3226C27.3081 79.2387 26.105 78.3583 24.7683 77.7295C23.1262 77.1178 21.5787 76.2772 20.1716 75.2325C18.3072 73.5481 17.2799 70.4356 19.8961 68.9444C22.5124 67.4532 25.3396 68.4483 27.0746 66.1668C27.6114 65.1091 28.0869 64.0212 28.4988 62.9087C30.3438 59.9095 33.2214 62.5066 35.0162 63.9001C36.0222 64.8297 37.3348 65.3575 38.7036 65.383C40.834 65.2879 42.1419 63.3639 44.3262 63.9222C46.5105 64.4804 47.152 65.6605 48.7699 65.9943C49.3938 66.0496 50.0223 65.9875 50.6229 65.8113C51.0779 65.6778 51.5097 65.4474 51.9648 65.3139C52.4199 65.1804 57.6974 63.1352 56.6736 66.8877C56.6736 66.8877 56.9237 67.2895 56.9742 67.0726C57.9413 64.1534 54.1329 63.8777 52.2689 64.5501C50.4049 65.2225 48.7883 65.9643 46.9129 64.7693C46.2093 64.2331 45.454 63.7685 44.6583 63.3823C42.929 62.6906 41.7216 63.6429 40.0285 64.1723C36.6217 65.4666 35.2506 62.8454 32.6701 61.382C32.095 60.9931 31.4293 60.7593 30.7376 60.7033C30.046 60.6472 29.3519 60.7709 28.723 61.0623C27.2499 61.9751 27.0071 63.8515 26.1584 65.2312C24.9407 67.2106 22.3594 67.0283 20.3636 67.5782C19.6893 67.6917 19.0551 67.9738 18.5199 68.3981C17.9847 68.8224 17.5658 69.3753 17.3023 70.0053C17.0388 70.6352 16.9392 71.3219 17.0128 72.0013C17.0863 72.6808 17.3306 73.331 17.723 73.8915C19.8858 77.7852 24.9719 77.9374 27.7094 81.2338C29.4126 83.3151 31.5202 85.4799 34.196 83.4879C35.2606 82.55 36.2405 81.5204 37.1247 80.4111C37.6492 79.7925 38.297 79.29 39.0269 78.9355C40.6736 78.2121 42.0359 79.2982 43.4072 80.1004C44.0009 80.5585 44.7063 80.8497 45.45 80.9437C46.1938 81.0377 46.9487 80.9311 47.6364 80.635C49.5483 79.4133 48.4936 76.6147 50.2873 75.1136C53.1844 72.7616 60.9337 73.9734 60.4833 68.2391C64.4855 67.8397 68.5121 67.7329 72.5311 67.9196C72.7865 68.9862 73.0604 70.0229 73.3944 71.0966C69.9937 73.0604 66.9958 75.6484 64.558 78.7248C64.4986 78.4688 64.3633 78.2366 64.1697 78.0585C63.9761 77.8804 63.7333 77.7647 63.4731 77.7266C62.0123 77.4068 61.1493 78.4055 60.1428 79.2333C59.6821 79.6213 59.1293 79.8846 58.5372 79.998C57.9451 80.1115 57.3334 80.0713 56.7606 79.8813C56.186 79.6983 55.5631 79.7449 55.0231 80.0114C53.7508 80.7997 54.2317 82.9145 53.5005 84.0357C51.8399 86.735 46.7661 87.1691 46.5649 90.9315C46.4794 92.822 48.4497 94.1995 48.2671 96.1129C48.0845 98.0263 45.9268 98.4353 45.1935 99.762C44.902 100.38 44.8209 101.077 44.9627 101.746C45.1045 102.416 45.4614 103.021 45.979 103.47C46.5681 104.038 47.2281 104.527 47.9425 104.926C48.8941 105.582 49.7233 106.4 50.3924 107.342C52.6975 110.331 55.2681 107.365 56.2796 104.845C56.6018 104.018 57.0705 103.257 57.6633 102.596C58.6719 101.563 59.9892 101.712 61.2928 102.018C62.5964 102.323 64.1357 102.65 65.2946 101.709C66.2071 100.698 66.806 99.444 67.0188 98.0984C67.2209 97.3058 67.6216 96.5779 68.1832 95.9832C68.7447 95.3885 69.4487 94.9465 70.2289 94.6987C71.4739 94.2243 72.973 93.7409 73.066 92.3098C73.0649 91.5668 72.8287 90.8427 72.3911 90.2409C71.6474 89.0674 71.2038 87.7296 71.0994 86.3457C70.9754 83.0447 71.7834 78.498 68.2019 76.7082C69.8348 74.9735 71.6426 73.4118 73.5966 72.0478C76.7408 81.217 84.1254 88.6124 94.5996 88.3584C100.534 87.8626 106.049 85.1163 110.012 80.683C111.833 78.8679 113.594 77.0159 115.283 75.0784C116.973 73.1409 118.569 70.8155 120.42 69.0189C122.369 67.1363 124.527 65.4818 126.852 64.0871C128.02 63.4002 129.23 62.7803 130.471 62.1789C130.914 61.997 133.129 61.2926 132.585 60.6273C125.622 52.2096 117.749 43.5211 107.495 39.2394C98.893 35.6424 87.9029 35.455 80.3818 41.6185C75.5945 45.8187 72.6237 51.7099 72.0919 58.058C72.015 57.9407 71.9132 57.8418 71.7936 57.7682C71.6741 57.6947 71.5399 57.6484 71.4005 57.6327C69.8639 57.6383 68.3505 57.7408 66.8255 57.7949C64.9842 56.7566 63.4083 55.306 62.2221 53.5573C61.0405 51.4107 60.185 49.1009 59.6837 46.704C59.5158 46.0788 59.2257 45.4928 58.8301 44.9797C58.4344 44.4667 57.9411 44.0369 57.3786 43.715C54.9997 42.6649 52.5173 44.0731 50.6174 41.7054C49.5899 40.4119 49.232 38.7034 47.9667 37.5943C47.43 37.155 46.8015 36.8417 46.1277 36.6777C45.4539 36.5136 44.7521 36.5031 44.0743 36.6468C41.0755 37.0758 38.6485 38.394 36.0879 36.1573C34.7463 34.5792 33.1431 33.2433 31.3485 32.2082C28.2617 30.5573 26.291 32.8178 26.8886 35.9553ZM68.3782 77.23C71.8483 78.6619 70.4793 83.649 70.9033 86.5971C71.0915 87.9568 71.5783 89.2587 72.329 90.4094C73.5238 92.5087 71.9488 93.3176 70.1703 93.9185C69.1456 94.1988 68.2385 94.7999 67.5819 95.6336C67.0402 96.6113 66.6444 97.6631 66.4072 98.7557C65.965 100.013 65.3889 101.354 63.9609 101.385C62.5329 101.416 60.9677 100.66 59.4105 100.901C56.6543 101.272 56.5611 104.523 55.26 106.368C54.9774 106.829 54.5849 107.212 54.1175 107.484C53.7374 107.57 53.3437 107.577 52.9605 107.504C52.5773 107.432 52.2128 107.283 51.8894 107.064C51.4085 106.769 51.1742 106.004 50.7855 105.559C49.6309 104.269 47.5088 103.543 46.7676 102.053C45.7245 99.3031 50.4676 98.6655 49.9165 95.7219C49.6932 94.4683 48.747 93.5141 48.3296 92.3065C47.6131 90.1707 49.6192 88.5936 51.2263 87.5978C52.4987 86.9693 53.6309 86.0911 54.5554 85.0154C55.3487 83.7257 55.0516 82.5921 55.4384 81.4244C55.8252 80.2567 58.5807 81.1663 59.9063 80.4935C60.5246 80.1169 61.0871 79.6559 61.5776 79.1238C62.2493 78.5035 64.7454 76.9383 64.9235 79.0737C64.6283 79.5535 64.1828 79.9409 63.8391 80.4323C62.5685 82.2736 61.4753 84.2311 60.574 86.2787C60.0897 87.3747 59.6743 88.4999 59.3302 89.6478C58.8947 90.7192 58.6558 91.8606 58.6248 93.0173C58.6138 93.5067 59.4651 94.2784 59.7371 93.7016C60.0889 92.6705 60.3763 91.6184 60.5976 90.5515C60.8775 89.4902 61.2274 88.4487 61.6452 87.4338C62.4894 85.3323 63.5453 83.3223 64.7969 81.4349C65.7884 79.9903 66.8818 78.6182 68.0686 77.329C68.0686 77.329 68.1678 77.1006 68.2579 77.1561L68.3782 77.23ZM80.6829 44.1602C87.2188 37.308 97.9862 36.7796 106.509 39.8317C117.016 43.5666 124.58 52.3542 131.892 60.4074C127.854 61.8496 124.116 64.0206 120.866 66.8125C117.824 69.6198 114.942 72.5951 112.234 75.7243C109.098 79.5559 105.214 82.7081 100.816 84.9891C90.869 89.3708 80.038 82.9972 76.1471 73.4928C75.4446 71.6552 74.9208 69.7547 74.5829 67.8175C74.6241 67.6325 74.5959 67.4386 74.5037 67.2727C73.7444 63.1971 73.8938 59.0062 74.9411 54.9986C75.9883 50.9909 77.9078 47.265 80.5627 44.0863L80.6829 44.1602ZM34.4338 34.6023C35.3686 35.8818 36.6837 36.8342 38.1911 37.3235C39.6986 37.8128 41.3213 37.8139 42.8274 37.3266C43.9519 36.9077 45.1563 36.7447 46.353 36.8496C47.0296 37.107 47.645 37.5029 48.1598 38.0118C48.6746 38.5207 49.0773 39.1314 49.3419 39.8046C49.815 40.9997 50.6056 42.0436 51.6285 42.8236C53.1316 43.7482 54.8247 43.2188 56.4358 43.6311C59.755 44.4327 59.4294 48.532 60.5832 51.1022C61.7291 53.6432 63.5721 55.809 65.8983 57.3485C64.9713 57.3664 64.044 57.3209 63.1229 57.2122C60.234 56.8359 57.4037 56.0951 54.7 55.0073C49.2258 52.7782 44.4978 49.0379 41.0701 44.2246C40.7695 44.0397 40.3698 44.0833 40.5898 44.4666C44.0459 49.4317 48.8162 53.3397 54.3659 55.7526C55.4582 56.2459 56.5792 56.6731 57.7226 57.0321C55.7964 57.8729 53.7998 59.704 51.7878 58.2595C49.7757 56.815 49.027 54.8661 46.4203 56.6112C46 56.8902 45.5156 57.543 45.0489 57.628C44.5823 57.713 42.7232 56.6934 42.2559 56.2405C41.9 55.8047 41.5183 55.3904 41.1129 55C39.9377 54.2166 38.507 53.9137 37.1167 54.1539C36.0452 54.3809 34.945 54.443 33.8541 54.338C30.9627 53.7169 31.5429 51.9653 31.0047 50.1459C30.679 49.1712 29.9983 48.354 29.0979 47.8567C27.655 46.969 25.6121 46.7872 25.0137 44.9308C24.4153 43.0743 26.4078 41.6541 27.2606 39.8636C27.6992 38.42 27.6958 36.8774 27.2508 35.4339C27.1215 35.0285 27.0906 34.5984 27.1607 34.1791C27.2308 33.7598 27.4 33.3634 27.6541 33.0228C27.9082 32.6822 28.24 32.407 28.622 32.2202C29.004 32.0334 29.4252 31.9402 29.8508 31.9483C30.7602 32.0358 31.6404 32.3181 32.4314 32.7761C33.2223 33.2341 33.9053 33.8571 34.4338 34.6023Z" fill="#909CFF"/>
<path d="M97.9856 68.0343C98.0908 69.0085 98.3715 69.9667 98.5251 70.9294C98.6788 71.8921 98.814 72.8848 98.8522 73.9005C98.9922 75.9476 98.935 78.0029 98.6815 80.0382C98.6815 80.0382 99.0122 80.2416 98.9521 80.2047C99.4143 78.1729 99.596 76.087 99.4924 74.005C99.5046 71.9921 99.1644 69.9919 98.4871 68.0948C98.4475 67.8223 97.9529 67.6834 97.9856 68.0343Z" fill="#909CFF"/>
<path d="M102.892 66.2566C104.031 70.1384 104.429 74.1981 104.066 78.224C103.956 78.4039 104.517 78.5014 104.427 78.4459C105.237 74.4219 104.938 70.2517 103.562 66.3795C103.409 65.9546 102.758 65.8017 102.892 66.2566Z" fill="#909CFF"/>
<path d="M107.364 63.6336C108.064 65.1481 108.637 66.7174 109.077 68.3257C109.485 69.9841 109.719 71.68 109.777 73.3861C109.777 73.3861 110.107 73.5895 110.047 73.5526C110.402 70.0735 109.661 66.5684 107.928 63.5256C107.768 63.1792 107.181 63.1903 107.364 63.6336Z" fill="#909CFF"/>
</g>
<defs>
<clipPath id="clip0_432_1561">
<rect width="88.736" height="104.647" fill="white" transform="translate(0.339844 76.5515) rotate(-58.4012)"/>
</clipPath>
</defs>
</svg>
