<svg width="81" height="74" viewBox="0 0 81 74" fill="none" xmlns="http://www.w3.org/2000/svg">
<g opacity="0.4" clip-path="url(#clip0_432_1582)">
<path d="M72.1054 30.0161C71.3606 29.6623 70.7425 29.089 70.3343 28.3736C70.098 27.7634 69.9149 27.134 69.7868 26.4923C69.7209 26.1128 69.5584 25.7566 69.3151 25.4579C69.0717 25.1591 68.7556 24.9277 68.3969 24.7858C67.7689 24.6452 67.111 24.7288 66.5378 25.022C66.0252 25.2839 65.4883 25.4951 64.9346 25.6527C63.7698 25.8509 63.1804 25.0373 62.2889 24.64C59.904 23.7156 59.1168 26.6656 57.6395 27.7288C56.1621 28.792 54.7246 27.5685 53.7122 28.6137C52.6999 29.6589 53.9479 31.5239 51.8784 31.8447C51.0114 32.097 49.9962 31.7592 49.3208 32.589C48.6454 33.4189 48.7196 34.8046 48.3427 35.8525C47.4585 36.3849 46.6201 36.9898 45.8363 37.6609C44.9992 38.3505 44.211 39.0972 43.4773 39.8955C43.3689 39.927 43.3255 39.9396 43.385 40.063C42.8771 40.6372 42.4549 41.2815 42.1314 41.9759C40.9034 40.6381 39.5037 39.4682 37.9685 38.4963C43.5685 32.89 47.7628 26.0434 50.2092 18.5152C50.1651 18.3638 49.9169 18.3188 49.868 18.4738C48.0778 23.2172 45.6581 27.7001 42.6738 31.8026C40.2476 29.9285 43.5826 26.847 43.9986 24.8026C44.1175 24.1432 44.0028 23.4634 43.6741 22.8799C43.3525 22.3402 42.5876 21.8122 42.5351 21.1472C42.4827 20.4823 43.5769 19.7182 44.3942 19.4569C45.8464 19.0343 47.0818 18.6747 47.2447 16.8916C47.4075 15.1085 46.5237 13.6066 47.3152 12.3676C48.1066 11.1287 49.4449 11.6071 50.4649 11.6387C51.4095 11.6285 52.3435 11.4364 53.2155 11.0728C54.2105 10.5571 55.2735 10.1846 56.3729 9.96627C57.9719 9.80585 59.8883 10.6555 59.4717 12.5359C59.055 14.4163 57.3693 15.3291 57.7057 17.1311C57.9765 17.8397 58.288 18.5322 58.6384 19.2052C59.2677 21.3676 56.801 21.6163 55.3698 21.8687C54.4972 21.9463 53.6834 22.3418 53.0836 22.9797C52.2138 24.0303 52.5641 25.4764 51.3616 26.272C50.159 27.0676 49.3242 26.8649 48.4712 27.4884C48.1771 27.7604 47.9366 28.085 47.7623 28.4453C47.6301 28.7183 47.5539 29.022 47.4218 29.295C47.2896 29.568 45.9928 32.9477 44.6538 30.8511C44.6538 30.8511 44.3559 30.797 44.4371 30.9142C45.4054 32.6261 47.1715 30.9393 47.6532 29.7671C48.1349 28.5949 48.4775 27.51 49.8493 27.1343C50.4055 27.031 50.9501 26.8726 51.4748 26.6612C52.5453 26.1386 52.6124 25.1574 53.0885 24.1275C53.9379 21.957 55.7691 22.4327 57.5708 21.838C58.0021 21.7324 58.3988 21.5172 58.7224 21.2134C59.0459 20.9097 59.2853 20.5276 59.4173 20.1044C59.6172 19.0141 58.8321 18.0933 58.5426 17.0986C58.1272 15.6714 59.3221 14.5262 59.9185 13.3441C60.1542 12.9758 60.2929 12.554 60.3216 12.1181C60.3503 11.6822 60.2681 11.2463 60.0826 10.8509C59.8972 10.4555 59.6145 10.1134 59.2609 9.85649C58.9072 9.59958 58.4941 9.43618 58.06 9.38147C55.2857 8.7346 53.0295 11.08 50.2915 10.962C48.5737 10.8755 46.6425 10.945 46.4377 13.0687C46.4251 13.976 46.4923 14.8826 46.6384 15.778C46.7064 16.2922 46.6664 16.8151 46.521 17.3133C46.1568 18.4045 45.057 18.5838 44.0879 18.8892C43.6159 18.974 43.1749 19.1833 42.811 19.4954C42.4471 19.8076 42.1734 20.2112 42.0184 20.6643C41.7765 22.0951 43.5559 22.7969 43.4972 24.2917C43.3679 26.6749 39.4659 29.8276 42.3773 32.0765C40.8481 34.145 39.1696 36.0994 37.3553 37.9242C36.74 37.5872 36.131 37.2719 35.4787 36.9692C36.0082 34.514 36.0689 31.9816 35.6575 29.5052C35.8043 29.5869 35.9725 29.6225 36.1401 29.6072C36.3076 29.592 36.4667 29.5265 36.5965 29.4195C37.3754 28.8645 37.2726 28.0266 37.3124 27.194C37.3263 26.8091 37.4389 26.434 37.6394 26.1046C37.8399 25.7753 38.1216 25.5026 38.4576 25.3127C38.7912 25.1189 39.0365 24.8037 39.1421 24.4333C39.3148 23.4917 38.1059 22.8115 37.8884 21.9835C37.3221 20.0373 39.2951 17.4459 37.5981 15.7349C36.7388 14.8826 35.2398 15.225 34.4113 14.3168C33.5828 13.4086 34.3155 12.2103 34.0015 11.293C33.8337 10.8894 33.5382 10.5517 33.16 10.3314C32.7818 10.1112 32.3417 10.0205 31.9068 10.0731C31.3847 10.1086 30.8693 10.2113 30.3735 10.3786C29.6537 10.5477 28.9099 10.5895 28.176 10.5021C25.7694 10.3111 26.0715 12.8033 26.8316 14.3648C27.0851 14.8726 27.245 15.422 27.3035 15.9866C27.3602 16.9083 26.724 17.4687 26.0192 17.9553C25.3144 18.4419 24.4985 19.0311 24.4468 19.9844C24.5342 20.8511 24.8716 21.6736 25.418 22.3522C25.7069 22.7884 25.8798 23.2909 25.9206 23.8125C25.9613 24.334 25.8685 24.8575 25.6509 25.3337C25.3412 26.1275 24.9266 27.0456 25.565 27.7043C25.9176 28.0228 26.3623 28.2218 26.8354 28.2728C27.711 28.4242 28.5356 28.7884 29.2363 29.3332C30.8543 30.6919 32.6623 33.0273 35.0486 32.0983C35.1697 33.6171 35.1336 35.1446 34.941 36.6565C29.2448 34.2095 22.5684 34.534 18.191 39.6077C15.8777 42.6335 14.8113 46.4267 15.2107 50.2091C15.289 51.8516 15.4107 53.4815 15.6037 55.1142C15.7967 56.7468 16.2135 58.502 16.2701 60.1508C16.3254 61.8832 16.183 63.6165 15.8458 65.3172C15.6696 66.166 15.4438 67.0057 15.1963 67.8518C15.0922 68.1401 14.4748 69.4925 15.0237 69.5205C22.0035 69.8348 29.5028 69.8337 35.9352 66.8125C41.3341 64.2796 46.1422 59.1509 46.4504 52.9393C46.5154 48.8666 44.9987 44.9287 42.2181 41.9507C42.3067 41.9646 42.3974 41.9589 42.4836 41.9338C42.5697 41.9087 42.6493 41.8649 42.7166 41.8056C43.3738 41.0749 43.9751 40.3135 44.6043 39.5675C45.8872 39.1406 47.2514 39.0166 48.5896 39.2052C50.1145 39.5669 51.5767 40.1533 52.928 40.9449C53.2964 41.1338 53.6988 41.248 54.1119 41.2808C54.5249 41.3135 54.9405 41.2643 55.3346 41.1359C56.8539 40.4592 57.2523 38.6779 59.1905 38.7941C60.2448 38.8625 61.2083 39.4266 62.2773 39.3031C62.716 39.2374 63.1344 39.074 63.5015 38.825C63.8686 38.5761 64.1749 38.248 64.3979 37.865C65.4823 36.2594 65.8996 34.543 68.0594 34.2897C69.3834 34.3315 70.7051 34.1452 71.9663 33.7391C74.0743 32.9849 73.8491 31.0802 72.1054 30.0161ZM34.7256 31.9577C32.5568 32.9876 30.7808 30.1972 29.2014 29.1323C28.4761 28.6376 27.65 28.3093 26.7822 28.171C25.2741 27.8358 25.567 26.742 26.0459 25.6409C26.353 25.0349 26.4577 24.3468 26.3445 23.6776C26.1137 23.001 25.7851 22.3617 25.3691 21.7801C24.9628 21.0305 24.5748 20.1817 25.1732 19.4915C25.7717 18.8013 26.8023 18.3842 27.3567 17.5426C28.3642 16.0766 26.8637 14.6368 26.5477 13.2277C26.4506 12.8959 26.4374 12.5452 26.5092 12.2068C26.6319 11.99 26.7977 11.8004 26.9965 11.6498C27.1952 11.4991 27.4227 11.3907 27.6649 11.331C28.0117 11.2301 28.4745 11.4472 28.8528 11.4544C29.9596 11.4607 31.2153 10.7669 32.2396 11.0552C33.991 11.7417 32.2565 14.2637 33.8883 15.2665C34.5784 15.699 35.437 15.6602 36.1886 15.981C37.5087 16.5585 37.3948 18.1866 37.1766 19.3759C36.9281 20.2489 36.8582 21.1627 36.9711 22.0628C37.2417 22.9926 37.9066 23.3386 38.294 24.0233C38.6814 24.7081 37.067 25.6236 36.8167 26.5408C36.7297 26.9956 36.7066 27.4602 36.7482 27.9211C36.7538 28.5059 36.4238 30.3611 35.3352 29.5286C35.2345 29.1826 35.2422 28.8051 35.1569 28.4312C34.8297 27.0383 34.3713 25.6795 33.7878 24.373C33.4763 23.6729 33.1214 22.9928 32.725 22.3368C32.4042 21.6703 31.9658 21.0669 31.4308 20.5555C31.2036 20.3402 30.4723 20.4123 30.6289 20.7889C30.9665 21.3984 31.3418 21.9864 31.7525 22.5494C32.1353 23.1379 32.4787 23.751 32.7803 24.3848C33.414 25.6873 33.9132 27.0509 34.2704 28.4546C34.5293 29.5449 34.7102 30.6524 34.8116 31.7685C34.8116 31.7685 34.8773 31.9136 34.8123 31.9325L34.7256 31.9577ZM45.1164 51.9906C45.5577 58.031 41.1845 63.3615 36.0778 66.0907C29.7958 69.467 22.3825 69.2788 15.4257 69.2862C16.4762 66.7529 17.052 64.0491 17.1245 61.3095C17.1 58.6624 16.9272 56.0189 16.607 53.3914C16.1373 50.2599 16.3114 47.0649 17.1186 44.001C19.3132 37.4047 26.9851 35.0078 33.1609 37.2449C34.3336 37.7011 35.4593 38.2689 36.5226 38.9405C36.5926 39.0395 36.6966 39.1094 36.8149 39.1369C39.0727 40.5272 40.9949 42.3976 42.4448 44.6149C43.8947 46.8323 44.8364 49.342 45.2031 51.9654L45.1164 51.9906ZM69.5067 34.1735C68.4988 34.0671 67.4827 34.2814 66.6034 34.7859C65.7242 35.2903 65.0269 36.0589 64.6111 36.982C64.3268 37.6949 63.8868 38.3358 63.3233 38.858C62.9107 39.0681 62.4588 39.1899 61.9965 39.2153C61.5343 39.2408 61.0719 39.1694 60.6391 39.0058C59.8696 38.7168 59.0352 38.6433 58.2263 38.7932C57.1426 39.1086 56.6665 40.1384 55.7792 40.725C53.974 41.954 52.1708 40.0394 50.4571 39.4827C48.7606 38.9347 46.9426 38.8782 45.214 39.3197C45.6036 38.8726 46.0234 38.4527 46.4704 38.0627C47.8893 36.855 49.4558 35.8316 51.1324 35.0172C54.5397 33.3797 58.3428 32.7448 62.0961 33.187C62.3129 33.1239 62.4638 32.9158 62.1877 32.8554C58.3502 32.3615 54.4494 32.9444 50.9226 34.5388C50.2198 34.8447 49.5359 35.1926 48.8748 35.5804C49.3034 34.3064 49.2928 32.5737 50.8415 32.2403C52.3901 31.9069 53.6354 32.3889 53.9276 30.404C53.9759 30.085 53.8744 29.575 54.0346 29.3174C54.1947 29.0597 55.4762 28.6163 55.8915 28.5893C56.251 28.6077 56.6113 28.6047 56.9704 28.5802C57.8463 28.3596 58.6043 27.8115 59.0874 27.0494C59.4399 26.4441 59.8829 25.8959 60.4011 25.4239C61.9372 24.3202 62.5182 25.3473 63.6117 25.8735C64.2136 26.1377 64.8932 26.1659 65.5156 25.9527C66.556 25.65 67.5194 24.7597 68.6563 25.2733C69.7931 25.7868 69.6107 27.3411 70.0931 28.5142C70.5891 29.342 71.3217 30.0028 72.197 30.4117C72.4447 30.5245 72.6618 30.6946 72.8304 30.9078C72.9991 31.1211 73.1143 31.3715 73.1666 31.6382C73.219 31.9049 73.2069 32.1803 73.1314 32.4416C73.056 32.7029 72.9193 32.9426 72.7326 33.1408C72.3007 33.5343 71.7889 33.8303 71.2321 34.0085C70.6754 34.1867 70.0869 34.243 69.5067 34.1735Z" fill="#909CFF"/>
<path d="M26.3699 49.9404C25.863 49.5719 25.2882 49.2935 24.7659 48.9529C24.2437 48.6123 23.7151 48.2501 23.2172 47.8321C22.1868 47.0194 21.2372 46.1097 20.3814 45.1156C20.3814 45.1156 20.1429 45.185 20.1863 45.1724C20.9508 46.2639 21.8614 47.2457 22.8928 48.0907C23.8416 48.9608 24.9358 49.6585 26.1258 50.1521C26.272 50.2503 26.5502 50.0755 26.3699 49.9404Z" fill="#909CFF"/>
<path d="M25.1064 53.0291C22.7774 51.902 20.6821 50.3475 18.9298 48.4467C18.892 48.3169 18.6047 48.5413 18.6697 48.5224C20.2292 50.6341 22.3342 52.2833 24.7603 53.294C25.0274 53.4039 25.3798 53.1606 25.1064 53.0291Z" fill="#909CFF"/>
<path d="M24.4289 56.2753C23.4107 55.9566 22.4208 55.5543 21.4693 55.0725C20.5081 54.5536 19.6037 53.9364 18.7704 53.2309C18.7704 53.2309 18.532 53.3003 18.5754 53.2877C20.072 54.9498 22.0516 56.1038 24.238 56.5889C24.4709 56.6619 24.7177 56.379 24.4289 56.2753Z" fill="#909CFF"/>
</g>
<defs>
<clipPath id="clip0_432_1582">
<rect width="56.7535" height="66.93" fill="white" transform="translate(64.2637) rotate(73.7741)"/>
</clipPath>
</defs>
</svg>
