<svg width="174" height="182" viewBox="0 0 174 182" fill="none" xmlns="http://www.w3.org/2000/svg">
<g opacity="0.4">
<path d="M84.1722 100.69C77.1346 99.7877 69.9852 100.409 63.2088 102.512C59.889 103.524 56.68 104.87 53.6309 106.528C53.7977 106.151 53.9811 105.736 54.4497 105.492C56.3069 102.959 57.9587 100.282 59.3892 97.4852C62.2578 91.7933 64.1345 85.6538 64.9386 79.3309C65.1221 78.916 63.958 78.8972 63.9043 79.3244C62.816 85.4616 60.6912 91.3689 57.6208 96.7932C56.0958 99.5187 54.3335 102.104 52.3542 104.52C51.3932 105.673 50.3944 106.81 49.4413 107.741C48.2698 108.796 47.1878 109.947 46.2064 111.181C45.6436 111.644 45.118 112.15 44.6346 112.695C43.7236 113.735 45.7806 114.284 46.4958 113.789C49.1976 111.963 51.6434 109.798 54.4338 108.281C63.4061 103.043 73.746 100.625 84.1106 101.339C84.5799 101.502 84.8591 100.769 84.1722 100.69Z" fill="#909CFF"/>
<path d="M90.3703 115.021C79.0689 114.333 67.7904 116.696 57.716 121.863C52.5439 124.242 47.6543 127.192 43.1384 130.658C38.8955 133.774 35.0884 137.444 31.8182 141.57C28.2234 138.802 24.9469 135.643 22.0488 132.153C19.1659 128.443 16.5957 124.501 14.3646 120.366C19.1377 118.035 23.5267 114.988 27.3799 111.332C31.2098 108.006 34.7322 104.342 37.9043 100.383C44.4621 92.1338 49.3584 82.6911 52.3223 72.5779C52.5392 72.0876 51.5339 71.9135 51.3714 72.3828C46.087 86.8903 37.1111 99.7691 25.3294 109.748C21.4743 112.958 17.2405 115.19 13.1968 118.316C12.9705 118.216 12.5687 118.309 12.6362 118.565C11.7121 119.328 12.3583 120.11 13.2215 120.402C14.8383 125.055 17.2551 129.39 20.3631 133.211C23.3247 137.094 26.799 140.557 30.6911 143.506C30.6127 144.193 31.3881 144.581 32.1461 144.601L32.5987 144.801C33.5924 145.511 35.9229 144.422 34.5477 143.453L34.2836 143.337C37.6618 139.543 41.266 135.957 45.0765 132.597C49.4656 129.111 54.2132 126.101 59.2392 123.619C64.1192 121.237 69.2359 119.374 74.5052 118.06C79.7653 116.985 85.076 116.173 90.4174 115.628C90.4636 115.59 90.5001 115.542 90.5235 115.487C90.547 115.432 90.5568 115.372 90.5522 115.312C90.5476 115.253 90.5287 115.195 90.497 115.144C90.4653 115.094 90.4218 115.051 90.3703 115.021Z" fill="#909CFF"/>
<path d="M151.8 75.5406C149.529 71.8373 146.445 68.6996 142.781 66.3652C143.921 61.9928 144.105 57.4255 143.318 52.9758C142.53 48.526 140.792 44.2986 138.22 40.5827C135.766 37.2231 132.403 34.634 128.527 33.1196C124.652 31.6051 120.425 31.2283 116.342 32.0334C115.222 29.6063 113.68 27.3973 111.787 25.5091C108.563 22.2638 104.387 20.1324 99.8672 19.4251C95.7634 18.8912 91.5933 19.5774 87.877 21.398C84.1606 23.2187 81.0625 26.0932 78.9691 29.6631L78.2307 28.8856C76.4854 27.0827 74.4483 25.5871 72.2054 24.4618C68.7248 22.6589 64.822 21.8289 60.9089 22.0595C56.9958 22.2901 53.2175 23.5726 49.9727 25.7718C46.7279 27.9711 44.1368 31.0054 42.473 34.5547C40.8092 38.1039 40.1343 42.0365 40.5195 45.9374C41.1897 50.7434 43.9707 58.0163 48.995 60.0131C48.2107 61.5604 47.8105 63.2738 47.8281 65.0085C47.8458 66.7432 48.2809 68.4481 49.0966 69.9791C50.1723 71.8563 51.8861 73.2849 53.9262 74.0052C55.9663 74.7255 58.1972 74.6895 60.213 73.9039C60.3836 74.5338 60.6104 75.1472 60.8905 75.7368C61.9271 77.9181 63.4301 79.8452 65.2932 81.3819C66.5848 82.4483 68.1212 83.1769 69.7642 83.5022C71.4073 83.8274 73.1054 83.7392 74.7058 83.2453C74.0913 86.9767 74.8287 90.8049 76.7853 94.0411C79.1486 97.9336 82.889 100.795 87.2642 102.058C86.5725 102.71 85.9507 103.433 85.4088 104.214C83.8871 106.681 83.2802 109.605 83.6942 112.475C84.1255 115.311 85.2892 117.987 87.0706 120.236C89.1629 122.89 91.8662 124.999 94.9499 126.382C95.2062 126.496 95.4892 126.538 95.7677 126.502C96.0461 126.466 96.3093 126.354 96.5281 126.178C96.6174 126.111 96.6892 126.022 96.7375 125.921C96.7858 125.82 96.8092 125.709 96.8057 125.597C96.8022 125.485 96.7719 125.376 96.7175 125.278C96.663 125.18 96.5859 125.097 96.4926 125.035C95.1972 124.191 93.835 123.499 92.6106 122.596C91.45 121.726 90.3718 120.751 89.3894 119.684C87.619 117.72 86.3757 115.339 85.7758 112.764C85.1527 110.322 85.4167 107.738 86.5207 105.472C87.683 103.226 89.5701 101.439 91.8758 100.4C92.2356 100.198 91.7242 99.9271 91.54 99.9358C90.4955 100.084 89.5015 100.479 88.6401 101.088L88.4139 100.988C84.2143 99.7334 80.6176 96.988 78.2999 93.2679C76.5206 90.1273 75.5421 86.5969 75.4507 82.9885L76.2246 82.5642C77.3873 81.7707 75.5305 80.769 74.6732 81.3819C73.3169 82.1209 71.7602 82.4079 70.2295 82.2013C68.6989 81.9947 67.274 81.3051 66.1622 80.233C64.6692 78.9462 63.3516 77.4689 62.2432 75.839C61.649 75.1349 61.1967 74.3223 60.9115 73.4462C60.716 72.8689 60.7524 72.2382 61.013 71.6872C61.1465 71.3855 60.4473 71.437 60.4096 71.4203C60.1047 71.8028 59.9036 72.2575 59.8257 72.7404C58.0287 73.5382 55.9923 73.6074 54.1453 72.9335C52.2984 72.2596 50.7851 70.8951 49.9242 69.1276C48.9717 67.1838 48.5725 65.0153 48.7703 62.8597C48.9681 60.7042 49.7552 58.6445 51.0455 56.9065C50.2962 57.7784 49.6475 58.7319 49.1118 59.7491C48.482 58.7842 47.7908 57.8609 47.0424 56.9849C46.15 55.8197 45.3735 54.57 44.7243 53.2538C43.5128 50.6847 42.7812 47.9159 42.5657 45.0837C42.3666 42.0406 42.8778 38.9929 44.0588 36.1812C45.2398 33.3695 47.0582 30.871 49.3706 28.8828C51.6696 26.8268 54.4314 25.3569 57.4209 24.5984C60.4103 23.8399 63.5388 23.8152 66.5399 24.5264C69.4595 25.2586 72.1797 26.6312 74.5033 28.5447C75.669 29.4585 76.7173 30.5129 77.6244 31.6839C78.4688 33.0404 79.3998 34.3409 80.4118 35.5774C80.8187 35.9829 82.1925 36.1396 82.1533 35.3105C81.8486 33.533 80.9966 31.8949 79.7162 30.6249C81.8746 27.3378 84.9277 24.7365 88.5158 23.1275C92.1039 21.5185 96.0772 20.9689 99.9673 21.5437C104.003 22.3356 107.672 24.4174 110.422 27.4755C111.753 28.8882 112.868 30.4907 113.73 32.2307C114.559 34.1035 115.208 36.0515 115.666 38.0478C115.894 38.9603 117.967 39.0654 117.986 37.9013C117.909 36.6066 117.637 35.3309 117.179 34.1172C121.04 33.4737 125.004 33.9743 128.583 35.5573C132.162 37.1404 135.199 39.7366 137.32 43.0257C141.527 49.992 143.157 58.2134 141.926 66.2579C140.964 65.7202 139.954 65.2734 138.909 64.9233C138.909 64.9233 138.469 64.9995 138.792 65.1873L141.945 67.4387C141.828 67.7027 141.712 67.9668 141.859 68.3476C142.006 68.7284 142.764 68.748 142.789 68.4883C142.856 68.3836 142.907 68.2691 142.939 68.1488C146.394 70.6592 149.257 73.8957 151.326 77.631C153.777 82.3273 154.453 87.7495 153.23 92.9035C152.679 95.3784 151.586 97.7003 150.03 99.7022C148.473 101.704 146.493 103.336 144.231 104.481C141.936 105.624 139.382 106.142 136.823 105.984C134.265 105.827 131.793 104.998 129.657 103.582C128.776 102.922 126.718 103.905 127.921 104.753C131.48 107.058 135.746 108.015 139.948 107.45C144.15 106.886 148.013 104.838 150.838 101.676C153.776 97.9974 155.455 93.4723 155.629 88.7672C155.802 84.0621 154.46 79.4257 151.8 75.5406Z" fill="#909CFF"/>
<path d="M135.516 107.256C135.516 107.256 135.026 107.039 135.06 107.37C136.609 111.184 136.769 115.42 135.513 119.34C134.258 123.26 131.666 126.614 128.189 128.818C126.243 129.968 124.066 130.671 121.814 130.876C119.563 131.081 117.295 130.784 115.173 130.006L114.946 129.905C111.103 128.496 107.948 125.664 106.134 121.994C105.663 121.019 103.315 121.334 103.844 122.379C105.835 126.331 109.197 129.422 113.303 131.073C111.938 132.849 110.013 134.112 107.84 134.657C105.667 135.202 103.374 134.997 101.332 134.075C98.9302 133.018 96.8156 131.402 95.1636 129.363C93.8544 127.837 91.7053 124.947 93.1044 122.905C91.014 124.777 92.6061 127.6 93.9117 129.441C95.7447 131.949 98.241 133.896 101.12 135.064C103.477 136.027 106.079 136.219 108.552 135.611C111.024 135.004 113.241 133.627 114.882 131.681C117.126 132.431 119.496 132.729 121.855 132.557C124.215 132.385 126.517 131.748 128.628 130.681C130.675 129.654 132.488 128.217 133.956 126.459C135.424 124.702 136.514 122.661 137.16 120.465C137.806 118.268 137.994 115.962 137.711 113.69C137.428 111.417 136.681 109.228 135.516 107.256Z" fill="#909CFF"/>
<path d="M119.802 54.0817C119.768 52.2856 119.224 50.5361 118.235 49.0367C117.246 47.5373 115.851 46.3497 114.213 45.612C112.66 44.9191 110.956 44.6312 109.262 44.775C108.538 44.8318 107.821 44.9522 107.118 45.1348C106.585 43.5803 105.647 42.1956 104.403 41.1222C103.158 40.0488 101.651 39.3252 100.035 39.0254C98.4333 38.7353 96.7844 38.8532 95.2404 39.3682C93.6964 39.8833 92.3071 40.7788 91.2004 41.9724C90.3271 43.0292 89.1797 45.3176 90.4548 46.5129C90.832 46.6798 91.6109 46.7538 91.7734 46.2845C91.8387 45.9119 91.8394 45.5309 91.7755 45.158C91.7672 44.7851 91.8247 44.4136 91.9453 44.0606C92.1949 43.3573 92.6003 42.7195 93.1312 42.1951C94.3424 41.0406 95.9116 40.3346 97.5789 40.1939C99.4027 40.0389 101.23 40.4443 102.818 41.3559C104.405 42.2674 105.676 43.6417 106.461 45.2951C105.689 45.5676 104.965 45.9634 104.319 46.4672C103.521 47.1512 104.736 47.8693 105.46 47.5581C106.663 46.9163 107.966 46.4861 109.315 46.2866C110.672 46.1363 112.045 46.3252 113.311 46.8364C114.827 47.4027 116.167 48.3574 117.199 49.6049C118.23 50.8524 118.915 52.3489 119.186 53.9446C119.061 54.4305 119.857 54.4668 119.802 54.0817Z" fill="#909CFF"/>
<path d="M119.199 93.6798C119.583 92.8124 117.665 92.4598 117.39 93.2853C116.881 94.7366 116.001 96.0291 114.837 97.0335C113.672 98.0379 112.265 98.7191 110.754 99.0089C109.193 99.2422 107.598 99.0643 106.127 98.4926C104.656 97.921 103.359 96.9754 102.365 95.7493C102.177 95.6659 101.716 95.6876 101.876 95.9385C102.899 97.3118 104.259 98.3974 105.825 99.0902C107.392 99.7829 109.11 100.059 110.815 99.8923C112.631 99.6719 114.358 98.9835 115.828 97.8945C117.298 96.8054 118.46 95.353 119.199 93.6798Z" fill="#909CFF"/>
<path d="M129.205 92.0626C129.505 91.3837 127.997 91.1226 127.806 91.7595C127.064 93.8847 125.541 95.6481 123.547 96.6921C121.552 97.7361 119.236 97.9826 117.066 97.3815C116.652 97.198 116.347 97.7848 116.816 97.9473C119.243 98.6752 121.854 98.4763 124.143 97.3891C126.432 96.3019 128.236 94.4038 129.205 92.0626Z" fill="#909CFF"/>
</g>
</svg>
