<svg width="24" height="24" viewBox="0 0 24 24" fill="none" xmlns="http://www.w3.org/2000/svg">
<mask id="mask0_585_2263" style="mask-type:alpha" maskUnits="userSpaceOnUse" x="0" y="0" width="24" height="24">
<rect width="24" height="24" fill="#5669FF"/>
</mask>
<g mask="url(#mask0_585_2263)">
<path d="M18.6 21L12.3 14.7C11.8 15.1 11.225 15.4167 10.575 15.65C9.925 15.8833 9.23333 16 8.5 16C6.68333 16 5.146 15.371 3.888 14.113C2.62933 12.8543 2 11.3167 2 9.5C2 7.68333 2.62933 6.14567 3.888 4.887C5.146 3.629 6.68333 3 8.5 3C10.3167 3 11.8543 3.629 13.113 4.887C14.371 6.14567 15 7.68333 15 9.5C15 10.2333 14.8833 10.925 14.65 11.575C14.4167 12.225 14.1 12.8 13.7 13.3L20 19.6L18.6 21ZM8.5 14C9.75 14 10.8127 13.5627 11.688 12.688C12.5627 11.8127 13 10.75 13 9.5C13 8.25 12.5627 7.18733 11.688 6.312C10.8127 5.43733 9.75 5 8.5 5C7.25 5 6.18733 5.43733 5.312 6.312C4.43733 7.18733 4 8.25 4 9.5C4 10.75 4.43733 11.8127 5.312 12.688C6.18733 13.5627 7.25 14 8.5 14Z" fill="#001233"/>
</g>
</svg>
