<svg width="110" height="101" viewBox="0 0 110 101" fill="none" xmlns="http://www.w3.org/2000/svg">
<g opacity="0.4" clip-path="url(#clip0_432_1574)">
<path d="M63.5768 49.5799C57.5655 45.936 51.2844 42.7532 44.7865 40.0584C41.6373 38.7628 38.4272 37.5462 35.1561 36.4087C32.019 35.634 28.9451 34.6312 25.9583 33.4082C24.9833 32.6556 26.0628 31.6602 26.9138 31.6865C33.6983 32.8003 40.2556 34.9683 46.3505 38.1127C52.7807 40.8797 58.9877 44.1317 64.9187 47.8412C76.8827 55.3032 87.5983 64.595 96.6843 75.3857C97.2694 75.8373 95.9523 76.3341 95.7013 76.0143C86.2989 65.7211 75.4851 56.8227 63.5768 49.5799Z" fill="#909CFF"/>
<path d="M12.1855 41.2536C10.9264 38.2544 10.3983 34.9893 10.6446 31.7265C10.8909 28.4637 11.9046 25.2963 13.6025 22.4845C15.5153 19.8983 17.9658 17.758 20.7806 16.215C23.5954 14.6721 26.7059 13.7641 29.8921 13.5552C44.4945 12.2145 59.8247 21.4616 70.4437 30.6036C83.3103 41.5773 92.5151 56.244 96.8476 72.6744C97.0411 73.3913 95.6986 73.6793 95.4746 73.0019C91.3653 59.8807 84.2715 47.9307 74.749 38.0883C65.2488 27.882 53.1093 20.5187 39.6495 16.7984C36.1106 15.7482 32.3639 15.5545 28.7145 16.2333C25.0652 16.912 21.6162 18.4438 18.6485 20.7041C16.2374 23.0777 14.5368 26.0794 13.7436 29.3617C12.9504 32.644 13.097 36.0729 14.1665 39.2514C17.9115 53.429 31.7246 63.2708 44.6341 68.3164C61.1007 74.7203 78.8312 74.4067 96.2971 73.9521C98.7247 73.871 97.9747 76.6972 95.9032 76.8008C78.6031 78.4745 61.1919 76.4674 44.8097 70.9111C31.0152 65.5607 17.263 55.64 12.1855 41.2536Z" fill="#909CFF"/>
<path d="M45.1471 34.914C43.3904 33.1483 41.411 31.6205 39.2578 30.3685C38.9068 30.0976 39.3983 29.7833 39.6238 29.8943C41.9566 31.0025 44.1261 32.4225 46.0741 34.1162C48.0935 35.7147 49.776 37.6988 51.0264 39.9563C51.3504 40.5848 50.2029 41.0233 49.8264 40.5435C48.3861 38.5697 46.8233 36.6895 45.1471 34.914Z" fill="#909CFF"/>
<path d="M69.8555 52.9759C69.278 51.9673 68.8369 50.8848 68.5439 49.7565C68.1145 48.6328 67.6037 47.543 67.0152 46.4958C65.827 44.4128 64.31 42.5393 62.5224 40.9473C62.2104 40.7065 62.9189 40.4336 62.9189 40.4336C64.8835 41.9523 66.6239 43.7413 68.0897 45.7488C68.8239 46.7615 69.4745 47.833 70.0354 48.953C70.6818 50.0186 71.0267 51.2435 71.0335 52.4979C71.266 53.2449 70.3015 53.4463 69.8555 52.9759Z" fill="#909CFF"/>
<path d="M82.9823 62.9813L82.8613 61.1223C82.7321 59.8802 82.4644 58.6583 82.0632 57.4795C81.2322 55.1279 79.9235 52.98 78.2193 51.1708C77.9073 50.9299 78.5853 50.6966 78.5548 50.7361C80.4981 52.4937 82.0677 54.6269 83.1717 57.0109C83.7499 58.1818 84.1967 59.4148 84.5038 60.6875C84.6767 61.3087 84.8128 61.9402 84.9114 62.5785C85.0439 63.3744 85.2374 64.0912 84.4544 64.6219C84.2839 64.7271 84.0885 64.7838 83.8895 64.7858C83.6905 64.7878 83.4953 64.7351 83.3254 64.6333C82.7659 64.3906 82.9589 63.6568 82.9823 62.9813Z" fill="#909CFF"/>
<path d="M34.4701 41.491C38.524 43.1522 42.7698 44.3119 47.1146 44.9448C49.1591 45.1987 51.2647 45.3735 53.3227 45.4487C55.3808 45.5238 57.7219 45.3129 59.9189 45.3692C60.4139 45.3729 60.4259 45.7605 59.9259 46.0051C55.4657 46.7853 50.9081 46.6936 46.5046 45.7351C42.2311 44.9958 38.0748 43.7158 34.1346 41.9257C33.9311 41.7056 34.2446 41.38 34.4701 41.491Z" fill="#909CFF"/>
<path d="M52.0325 50.5065C55.6124 51.8056 59.2713 52.8818 62.9884 53.729C64.8415 54.1504 66.7165 54.4626 68.5051 54.645C70.2936 54.8274 72.2602 55.021 74.1132 55.4424C74.7642 55.5665 74.4408 56.3888 73.8763 56.3945C70.0217 56.5402 66.1757 56.0821 62.4769 55.0368C58.6963 54.1156 55.0155 52.8369 51.4835 51.2178C50.924 50.9751 51.59 50.3541 52.0325 50.5065Z" fill="#909CFF"/>
</g>
<defs>
<clipPath id="clip0_432_1574">
<rect width="50.6659" height="99.0288" fill="white" transform="matrix(-0.611005 0.791627 0.791627 0.611005 30.957 0)"/>
</clipPath>
</defs>
</svg>
