<svg width="109" height="92" viewBox="0 0 109 92" fill="none" xmlns="http://www.w3.org/2000/svg">
<g opacity="0.4" clip-path="url(#clip0_432_1548)">
<path d="M79.7994 37.7688C81.1262 34.3046 82.1639 30.7387 82.9018 27.1076C82.25 27.5086 81.6353 27.9667 81.065 28.4766L80.8961 28.5576C80.2983 31.1875 79.5425 33.7801 78.6327 36.3214C77.3388 40.1342 75.8349 43.8742 74.1278 47.5242C68.0991 60.4335 59.272 74.4791 45.0367 79.3393C41.7095 80.5561 38.1646 81.0573 34.6364 80.8099C31.1082 80.5625 27.677 79.5721 24.5696 77.9041C21.7686 76.334 19.4291 74.0644 17.7801 71.3175C16.131 68.5706 15.229 65.4406 15.1623 62.2338C15.1127 54.8857 20.2323 49.7282 26.1302 46.0356C32.0282 42.343 38.0755 39.1978 43.6911 35.1529C50.1436 30.468 56.1232 25.1677 61.5443 19.3279C62.3288 18.4826 63.1368 17.6072 63.9747 16.755L63.8979 16.7919L63.7136 16.8803C63.5962 16.9251 63.4711 16.9459 63.3457 16.9416C63.2204 16.9373 63.0973 16.908 62.9838 16.8553C62.802 16.7644 62.6533 16.6195 62.5581 16.4405L60.4765 18.6773C57.3465 21.9851 54.041 25.124 50.5743 28.0802C43.8952 33.6512 36.7015 38.5787 29.0907 42.7957C22.7846 46.3465 15.6823 50.5606 13.4722 57.9237C12.6264 61.1416 12.6407 64.5194 13.5138 67.7207C14.3868 70.922 16.0881 73.8351 18.4484 76.1702C21.1658 78.7299 24.4334 80.6407 28.0061 81.7594C31.5789 82.8781 35.3641 83.1756 39.078 82.6296C55.6151 80.3228 66.53 65.707 73.6927 51.9723C76.0496 47.3798 78.0898 42.6343 79.7994 37.7688Z" fill="#909CFF"/>
<path d="M22.2965 61.1182C22.2789 60.3807 22.3031 59.6426 22.3693 58.9074C22.5415 57.3165 22.9535 55.7593 23.5912 54.2881C24.8364 51.3102 26.9431 48.7648 29.642 46.9769C30.1641 46.7264 29.6638 46.2348 29.2258 46.4637C26.1789 48.1255 23.7094 50.6716 22.1482 53.7611C21.3825 55.2816 20.8367 56.9013 20.5271 58.5719C20.3565 59.44 20.2608 60.3206 20.2409 61.2041C20.1275 62.0772 20.2525 62.9633 20.6026 63.7692C20.8806 64.3486 22.2115 63.9727 22.3138 63.3984C22.4043 62.6401 22.3985 61.874 22.2965 61.1182Z" fill="#909CFF"/>
<path d="M23.4567 67.7087C23.4567 67.612 23.4484 67.5156 23.4318 67.4205C23.3957 67.3255 23.3516 67.2337 23.3001 67.146C23.2163 67.0163 23.1103 66.902 22.9871 66.8085C22.7916 66.6872 22.5731 66.6069 22.345 66.5726C22.0909 66.5382 21.8319 66.5659 21.5903 66.6533C21.354 66.7194 21.1504 66.8706 21.0192 67.0774C20.9727 67.1496 20.9473 67.2332 20.9461 67.3188C20.9522 67.43 21.0022 67.5341 21.0851 67.6085C21.0988 67.6332 21.111 67.6586 21.1217 67.6847L21.1583 67.761C21.1861 67.9553 21.2729 68.1361 21.407 68.2794C21.5214 68.4458 21.6872 68.5703 21.8795 68.6342C22.1353 68.7146 22.4111 68.7077 22.6634 68.6145C22.8904 68.5717 23.1023 68.4701 23.2777 68.3198L23.4722 68.0952C23.4883 67.9662 23.4831 67.8357 23.4567 67.7087Z" fill="#909CFF"/>
<path d="M85.4073 20.5968C85.4326 17.9554 84.6133 15.379 83.068 13.2405C81.751 11.4027 79.8781 10.0336 77.7207 9.33169C75.5633 8.62975 73.2337 8.63148 71.0696 9.33661C67.1454 10.3793 63.7888 12.9275 61.7366 16.4218C61.6984 16.4738 61.675 16.5351 61.6689 16.5991C61.6628 16.6631 61.6743 16.7275 61.702 16.7854C61.7298 16.8432 61.7729 16.8924 61.8266 16.9278C61.8803 16.9631 61.9428 16.9832 62.0073 16.9859L67.6894 17.0172C66.9437 18.2191 66.2134 19.4136 65.4977 20.6386C65.1833 21.1646 65.7479 21.4752 66.2379 21.3152L71.4985 19.5228C71.8148 21.5376 71.6819 23.5994 71.1091 25.5622C70.9542 26.1055 71.6899 26.2215 72.0591 26.0068C73.7567 24.962 75.3602 23.7721 76.8514 22.4507L79.924 28.855C80.1142 29.2514 80.6707 29.1908 80.9647 28.9372C81.4453 28.521 81.9009 28.0769 82.329 27.6073L82.0279 28.2395C81.7888 28.8044 82.7497 28.681 82.9676 28.4264C84.6366 26.1572 85.4957 23.4002 85.4073 20.5968ZM83.266 24.7567C82.5635 25.836 81.7322 26.827 80.7904 27.7077C79.7735 25.5882 78.7566 23.4687 77.7397 21.3492C77.5495 20.9528 76.963 20.9903 76.661 21.2665C75.4094 22.4067 74.072 23.4497 72.6607 24.3863C73.0534 22.4751 73.0782 20.509 72.7335 18.5926C72.6713 18.2661 72.1542 18.2515 71.9093 18.3316L67.2921 19.8902L69.1023 16.7333C69.3537 16.3125 69.0159 16.0807 68.6049 16.0903L62.9739 16.1658C64.9789 12.8427 68.1974 10.4175 71.9508 9.40152L72.0276 9.36468C74.0755 9.03426 76.1725 9.3155 78.0533 10.1728C79.934 11.0301 81.5141 12.425 82.5935 14.1809C83.8638 16.2395 84.4856 18.6323 84.3791 21.0525C84.3124 22.2234 84.0933 23.3815 83.7274 24.4978C83.5474 24.5256 83.3834 24.6176 83.266 24.7567Z" fill="#909CFF"/>
<path d="M85.6108 5.5865C85.7686 4.49788 86.2129 3.14041 85.0383 2.50343C83.8176 1.90269 82.4869 1.55248 81.125 1.47349C81.125 1.47349 80.9714 1.54717 81.0329 1.5177L81.479 1.66004L81.4022 1.69688C81.4499 4.59822 80.6922 7.46077 79.2127 9.96923C78.8596 10.5326 79.8381 10.6821 80.0896 10.2613C81.6383 7.67216 82.1865 4.614 81.6311 1.66211C82.62 1.93335 83.5727 2.31994 84.4695 2.81389C85.0487 3.155 85.0554 3.60201 84.975 4.22205L84.6427 6.08852C84.3396 8.60728 83.3811 11.0071 81.8621 13.05C81.5038 13.4845 82.3682 13.6325 82.6483 13.3106C84.3401 11.0583 85.3664 8.38234 85.6108 5.5865Z" fill="#909CFF"/>
</g>
<defs>
<clipPath id="clip0_432_1548">
<rect width="93.3855" height="56.4534" fill="white" transform="translate(0 40.3958) rotate(-25.6308)"/>
</clipPath>
</defs>
</svg>
