<svg width="162" height="158" viewBox="0 0 162 158" fill="none" xmlns="http://www.w3.org/2000/svg">
<g opacity="0.4" clip-path="url(#clip0_432_1554)">
<path d="M85.8427 63.0976C85.5885 63.0132 85.3267 63.0087 85.2096 63.1793C85.0925 63.3498 84.3765 63.2421 83.9652 63.3245C82.699 63.4878 81.429 63.6912 80.1913 63.9782C77.144 64.5951 74.4267 66.3055 72.5521 68.7867C70.7522 71.3116 69.6745 74.2787 69.4351 77.3685C69.0722 80.7083 69.3967 84.0863 70.3886 87.2944C71.3805 90.5025 73.0189 93.473 75.2028 96.023C77.3085 98.4685 80.1132 100.21 83.24 101.014C84.9559 101.361 86.7131 101.458 88.4573 101.303C90.4252 101.185 92.4007 100.988 94.3581 100.768C103.627 99.6345 112.801 97.8204 121.805 95.3406C130.401 93.1356 138.776 90.1417 146.823 86.3971C149.796 85.023 152.61 83.3258 155.212 81.3364C157.025 80.0916 158.402 78.3088 159.147 76.2402C160.359 71.7756 155.298 69.0005 151.911 67.4922C145.367 65.2084 138.551 63.7881 131.637 63.2671C123.66 62.3997 115.641 61.9625 107.616 61.9573C107.591 61.9056 107.554 61.8607 107.508 61.826C107.442 61.7818 107.365 61.758 107.286 61.7577C107.207 61.7575 107.13 61.7808 107.064 61.8247L106.057 61.8107C99.2993 61.8284 92.5487 62.2582 85.8427 63.0976ZM99.9969 63.8027C102.383 63.7446 104.696 63.5989 107.252 63.6577C108.188 67.1921 108.467 70.869 108.075 74.5056C108.075 74.5056 108.401 74.8993 108.482 74.6851C109.387 71.4593 109.454 68.0569 108.677 64.8C108.591 64.4289 108.487 64.0359 108.38 63.6829C113.704 63.6993 119.017 63.8962 124.32 64.2736L124.456 64.7503C124.582 65.1251 124.667 65.4962 124.793 65.8711C124.919 66.246 125.158 67.3374 125.329 68.0796C125.672 69.5641 126.021 71.1904 126.208 72.6198C126.208 72.6198 126.497 72.9697 126.542 72.7117C126.69 71.2217 126.684 69.7208 126.525 68.2324C126.438 67.4737 126.308 66.7206 126.135 65.977C126.054 65.4141 125.918 64.8607 125.727 64.3251C132.823 64.7985 139.868 65.8586 146.787 67.4947C149.43 68.0943 151.997 68.985 154.442 70.1504C155.336 70.5825 156.165 71.1356 156.908 71.7941C156.908 71.7941 157.034 71.9472 157.089 72.0128L157.197 72.144C157.248 72.2246 157.308 72.2981 157.378 72.3627L157.469 72.472C157.469 72.472 157.867 72.9532 157.686 72.7345C157.505 72.5158 157.794 72.8657 157.848 72.9313C158.073 73.5698 158.092 74.2628 157.902 74.913C157.653 75.799 157.21 76.6186 156.604 77.3122C154.907 79.342 152.851 81.0426 150.539 82.3291C147.194 84.3368 143.69 86.0651 140.061 87.4961C140.077 85.485 139.684 83.4922 138.905 81.639C138.554 80.5965 138.132 79.5796 137.641 78.5956C137.297 78.1801 137.129 77.6197 136.851 77.1498C136.705 76.6807 136.38 76.288 135.946 76.0563C135.864 76.0229 135.772 76.0205 135.687 76.0497C135.603 76.0788 135.532 76.1375 135.488 76.2149C135.282 76.6796 135.688 77.0808 135.915 77.4451L136.641 78.7235C137.128 79.6399 137.564 80.5832 137.945 81.5488C138.726 83.5181 139.091 85.6098 139.766 87.6297C136.098 89.08 132.325 90.3592 128.603 91.5221C126.502 92.1919 124.387 92.7999 122.271 93.4078C122.419 92.4131 122.392 91.4006 122.193 90.4153C122.06 89.2733 121.865 88.1456 121.72 87.1235C121.346 84.8763 120.657 82.6932 119.675 80.6384C119.458 80.3759 118.757 80.1084 118.886 80.665C119.11 81.6946 119.481 82.6774 119.731 83.6489C120.007 84.6848 120.223 85.7354 120.38 86.7959C120.603 87.8827 120.761 88.9819 120.853 90.0877C120.823 91.1725 120.916 92.257 121.13 93.3207C121.216 93.4692 121.326 93.6023 121.455 93.7143C115.779 95.2785 110.028 96.5734 104.238 97.6427C104.742 95.291 104.754 92.861 104.272 90.5058C103.965 89.0651 103.579 87.6169 103.148 86.2049C102.969 85.5427 102.75 84.8767 102.531 84.2106C102.402 83.5511 102.09 82.9416 101.63 82.4518C101.467 82.255 101.031 82.1736 100.881 82.4822C100.73 82.7908 100.945 83.4968 101.121 83.9773C101.298 84.4577 101.614 85.3749 101.829 86.0809C102.249 87.391 102.665 88.7412 102.979 90.1019C103.563 92.6065 103.793 95.1808 103.662 97.75L101.73 98.1331C97.6503 98.8186 93.5422 99.3805 89.417 99.6987C86.1466 100.221 82.7959 99.7802 79.7746 98.4293C77.1854 96.8329 75.022 94.6331 73.469 92.018C71.9161 89.4029 71.0198 86.4501 70.8566 83.4118C70.2196 77.6036 71.7724 70.8312 76.9943 67.4697C78.2685 66.6599 79.6758 66.082 81.151 65.7627C82.6943 65.4439 84.2994 65.1107 85.7837 64.988C87.2217 68.5417 88.0692 72.3072 88.2924 76.1356C88.2924 76.1356 88.5818 76.4855 88.6047 76.2456C88.8966 72.365 88.3092 68.4696 86.8862 64.8496C91.1475 64.1609 95.5851 63.9528 99.9969 63.8027Z" fill="#909CFF"/>
<path d="M47.5242 79.1009C46.817 79.7529 46.1801 80.4773 45.6239 81.262C43.994 83.1258 42.6707 83.0417 40.4038 82.4857C38.9253 82.1249 37.5182 82.0733 36.6718 83.5469C36.1882 84.3889 36.2586 85.767 35.4589 86.539C33.8823 87.843 32.0134 86.0739 30.5787 85.6769C30.2247 85.5284 29.8442 85.4534 29.4602 85.4562C29.0762 85.459 28.6967 85.5395 28.3446 85.6931C27.9924 85.8466 27.675 86.0699 27.4115 86.3495C27.148 86.6291 26.9438 86.9591 26.8114 87.3196C25.568 89.7845 26.8562 92.9915 23.9439 94.5532C21.8846 95.6304 19.176 95.4766 18.0202 97.8691C17.6988 98.7542 17.5692 99.6972 17.6398 100.636C17.7103 101.574 17.9796 102.487 18.4296 103.313C20.0215 106.932 23.7231 110.426 27.4313 107.285C28.8765 106.09 28.9746 105.272 31.5385 106.098C32.1849 106.3 32.7828 106.8 33.4255 107.042C34.1516 107.393 34.9514 107.565 35.758 107.544C38.6322 107.229 37.6335 104.372 39.0882 102.653C41.1171 100.201 45.1509 103.384 47.7347 102.094C49.1014 101.063 50.0905 99.6104 50.549 97.9615C52.5702 93.8957 55.5654 96.7589 58.7909 95.9326C59.2106 95.8043 59.6008 95.5942 59.9391 95.3144C60.2773 95.0347 60.5569 94.6907 60.7617 94.3025C61.8565 92.5498 61.9146 90.8812 64.1509 90.0628C66.3873 89.2443 69.4843 89.5556 70.7525 87.2544C71.0824 86.6284 71.167 85.9022 70.9897 85.2178C70.8124 84.5333 70.3859 83.94 69.7937 83.5539C70.1869 83.4497 70.5763 83.3854 70.9514 83.2593C71.3265 83.1332 70.9704 83.0594 70.8248 83.1062C67.6302 83.086 64.4447 83.4572 61.3395 84.2115C57.9102 84.8984 54.5206 85.7716 51.1858 86.8272C44.7958 88.7112 38.6742 91.41 32.9722 94.8572C32.4467 95.2919 33.2797 96.0761 33.7862 95.8414C39.7341 92.7675 45.8978 90.1313 52.2283 87.9538C55.1597 87.0393 58.1453 86.1905 61.2395 85.4728C64.3337 84.7551 66.6148 84.5258 69.2358 83.9049C69.2743 83.9706 69.3232 84.0297 69.3805 84.0798C72.4976 85.6637 68.4352 88.2871 67.1318 88.6285C65.8285 88.9699 65.2249 88.9535 64.2747 89.1869C63.4817 89.3698 62.7421 89.7351 62.1149 90.254C61.4876 90.7728 60.99 91.4307 60.6617 92.1753C60.1038 93.3734 59.7449 94.8121 58.274 95.2184C56.803 95.6247 55.9072 95.0766 54.8132 94.9133C54.1151 94.7126 53.3781 94.6868 52.6672 94.8381C51.9563 94.9893 51.2933 95.313 50.7366 95.7807C49.9088 96.7878 49.2728 97.9381 48.8601 99.1743C48.6178 99.9592 48.113 100.637 47.4303 101.094C46.7477 101.552 45.9287 101.761 45.1109 101.686C43.8675 101.61 42.706 101.097 41.4626 101.02C40.7699 100.907 40.0589 101 39.4182 101.288C38.7774 101.575 38.2353 102.045 37.8591 102.638C37.6133 103.218 37.4338 103.824 37.3241 104.443C36.9328 105.798 37.0452 105.89 35.5561 106.274C34.0671 106.659 33.4835 106.221 32.0611 105.482C31.5071 105.134 30.8807 104.918 30.2298 104.85C29.579 104.782 28.921 104.863 28.3063 105.088C27.6249 105.507 27.0057 106.019 26.4669 106.61C24.1458 108.53 21.639 107.104 20.2338 104.915C18.8285 102.725 17.4947 99.1509 19.9538 97.2642C21.5742 95.9239 24.0496 96.1969 25.6376 94.7729C26.587 93.7607 27.1177 92.4268 27.1227 91.04C27.0731 89.8203 27.3415 88.6084 27.9015 87.5229C29.0868 85.8796 31.0318 86.849 32.3819 87.5003C32.8163 87.7628 33.2993 87.9349 33.8019 88.0064C34.3046 88.0779 34.8167 88.0473 35.3075 87.9165C37.0707 87.1947 36.4833 85.1024 37.5829 83.935C39.15 82.3074 42.0023 84.5521 43.9798 83.911C45.9572 83.2699 46.5141 81.4465 47.7556 80.2723C49.8187 78.3081 54.2705 79.856 57.1761 79.8467C60.7044 79.654 65.1 79.0385 67.1137 82.6767C67.4574 83.0923 68.3047 83.0912 67.98 82.4758C65.1724 77.4317 59.1021 79.3218 54.438 78.9439C52.076 78.5404 49.6444 77.3841 47.5242 79.1009Z" fill="#909CFF"/>
<path d="M39.3746 64.7002C38.626 64.771 37.8711 64.6814 37.1604 64.4372C36.4496 64.193 35.7994 63.7999 35.2531 63.2841C34.0074 62.2598 32.5387 61.5417 30.9646 61.1871C29.3906 60.8325 27.755 60.8513 26.1886 61.2421C20.1583 63.136 19.4529 72.4487 26.2696 73.7348C27.0296 73.8678 27.8094 73.838 28.5574 73.6473C28.7764 73.4662 29.1258 73.3982 29.4133 73.3445C29.7684 73.0932 30.2017 72.9775 30.6345 73.0181C31.0674 73.0588 31.4711 73.2533 31.7725 73.5663C32.7912 73.4603 33.4043 73.8003 33.6081 74.6263C34.5487 75.7635 34.5753 77.1779 35.8844 78.0472C36.4073 78.4163 37.0144 78.6486 37.6505 78.7227C38.2865 78.7968 38.9311 78.7105 39.5256 78.4715C40.12 78.2326 40.6453 77.8486 41.0535 77.3547C41.4617 76.8608 41.7398 76.2727 41.8624 75.6441C43.9512 77.0103 44.8814 81.4342 48.0517 80.7641C48.637 80.6072 49.1571 80.2674 49.5359 79.7943C50.0923 79.1366 50.8734 78.7094 51.727 78.5957C52.5806 78.4821 53.4456 78.6901 54.1534 79.1794C55.3175 80.1745 56.7366 80.8247 58.251 81.0571C59.7458 81.0363 60.4093 79.7876 61.666 79.3006C64.2413 78.3123 65.3914 80.6391 67.6668 80.8933C67.9771 80.9468 68.296 80.9225 68.5948 80.8225C68.8935 80.7225 69.1629 80.55 69.3787 80.3204C69.5945 80.0908 69.75 79.8113 69.8313 79.507C69.9125 79.2027 69.9169 78.883 69.8442 78.5767C72.3185 76.5301 70.4011 73.3648 68.3237 71.8787C66.3024 70.9688 64.5648 69.5303 63.294 67.7148C62.8113 66.2997 62.1537 64.9505 61.3365 63.6986C59.3648 61.3148 56.8133 62.6885 54.6236 63.6526C52.4339 64.6166 50.7192 64.1932 48.6019 62.7033C47.6622 61.9127 46.509 61.4183 45.2878 61.2825C44.6822 61.3175 44.0899 61.4755 43.5473 61.747C43.0046 62.0186 42.523 62.3978 42.1317 62.8617C41.4154 63.7345 40.4556 64.3745 39.3746 64.7002ZM48.1154 63.3636C50.1023 64.7403 51.7589 65.9852 54.2609 65.1312C56.7629 64.2772 59.2353 61.827 61.0661 64.8431C61.7412 66.0158 61.9678 67.449 62.6428 68.6218C63.9785 70.9055 71.6273 74.0448 69.0111 76.9454C67.1039 75.4502 65.0225 74.1913 62.8123 73.1961C60.2204 71.9178 57.5052 70.9057 54.7084 70.1754C51.959 69.4829 49.1463 69.0698 46.3132 68.9426C44.9279 68.8729 43.5389 68.8432 42.0518 68.7841C40.6053 68.7397 39.1613 68.9381 37.7799 69.3709C37.1677 69.6562 37.917 70.4729 38.3169 70.5105C39.5568 70.5558 40.7985 70.4903 42.027 70.3147C43.4456 70.2463 44.9025 70.2689 46.3979 70.3826C49.2307 70.5131 52.043 70.9261 54.7931 71.6154C57.3665 72.2562 59.883 73.1066 62.3172 74.158C64.4441 75.1244 66.3806 76.3956 68.4123 77.5143C68.1743 77.8954 68.5865 78.4384 69.0911 78.6472C69.2701 80.1566 68.2904 80.488 66.1597 79.5616L65.6085 79.2073C65.0677 78.9547 64.6002 78.5679 64.0557 78.3554C63.2961 78.011 62.4326 77.9732 61.6451 78.2498C59.7477 78.8985 59.3726 80.7188 56.9029 79.9623C55.676 79.3724 54.5004 78.6817 53.3879 77.8973C51.2972 76.9747 50.2509 77.5823 48.7353 79.0937C46.4561 81.4209 44.8747 77.9039 43.7827 76.4499C43.2249 75.6425 42.455 75.0049 41.5577 74.607C41.5069 74.5956 41.4541 74.5959 41.4034 74.608C41.3527 74.6201 41.3054 74.6437 41.2652 74.677C41.225 74.7102 41.193 74.7522 41.1716 74.7997C41.1502 74.8472 41.1399 74.8991 41.1416 74.9511C41.085 75.681 40.7889 76.372 40.2992 76.9169C39.8096 77.4617 39.1539 77.8299 38.434 77.9641C36.3671 78.2741 35.5084 76.7008 34.8133 75.1026C34.4976 74.0933 33.9236 73.1842 33.1482 72.4652C32.764 72.1723 32.3159 71.9743 31.8404 71.8876C31.3648 71.8008 30.8754 71.8277 30.412 71.966C29.4703 72.3415 28.51 72.6686 27.5349 72.9461C26.6951 73.0373 25.8464 72.9013 25.0776 72.5523C24.3089 72.2033 23.6483 71.6541 23.1649 70.9621C19.8975 66.2983 25.6783 61.5169 30.1377 62.1377C33.5213 62.6171 36.0176 66.4823 39.5212 66.1258C40.6471 65.9113 41.6725 65.3349 42.4411 64.4842C44.3842 62.5087 45.6562 61.8617 48.1154 63.3636Z" fill="#909CFF"/>
<path d="M68.2155 92.0786C67.7886 92.6337 67.2423 93.0856 66.617 93.4008C66.1077 93.4573 65.5924 93.4127 65.1006 93.2695C64.6088 93.1264 64.1503 92.8876 63.7513 92.5667C63.3052 92.2202 62.7458 92.0526 62.1823 92.0965C60.2906 92.2616 59.805 94.3943 59.1082 95.781C57.1717 99.5926 51.5632 95.5761 49.9951 99.9669C49.3544 101.823 49.94 104.359 47.3342 104.82C45.7148 105.091 43.8868 104.798 43.1118 106.581C42.8555 107.336 42.7256 108.128 42.7272 108.925C42.7052 110.169 42.4788 111.402 42.057 112.573C41.0732 114.432 40.5575 116.502 40.5547 118.604C40.8956 121.379 44.5572 124.022 46.7183 121.24C47.8484 119.753 48.2121 117.206 50.5941 118.035C51.9013 118.5 53.2789 119.497 54.7917 118.651C56.3045 117.805 56.3483 116.075 56.5139 114.759C56.6796 113.443 57.1147 112.052 58.657 111.955C59.5481 111.918 60.4193 112.302 61.2504 111.836C63.0003 110.83 62.4214 108.436 62.5737 106.837C62.9079 103.54 66.2163 105.445 68.0737 103.945C68.7886 103.089 69.4472 102.188 70.0454 101.246C70.9041 100.278 72.0161 99.6163 72.9796 98.8194C73.7378 98.2454 74.2743 97.4272 74.4984 96.5035C74.7224 95.5798 74.62 94.6074 74.2087 93.7513C74.0751 93.5566 73.8709 93.4217 73.6394 93.3751L73.9021 93.1577C74.0554 93.0309 73.8383 92.7685 73.6488 92.8515C68.9597 94.2146 64.6116 96.5556 60.8914 99.7203C57.0071 102.87 53.9105 106.882 51.8479 111.436C51.6423 111.901 52.5772 112.674 52.8885 112.159C54.0572 110.11 55.3305 108.123 56.7033 106.205C58.198 104.288 59.8595 102.507 61.6683 100.883C65.0408 97.8573 68.8711 95.3852 73.0167 93.5586C73.0632 93.6302 73.1178 93.6963 73.1795 93.7554C74.501 95.9773 72.0494 97.784 70.5423 98.9937C69.8104 99.5305 69.1587 100.169 68.6068 100.889C68.2669 101.587 67.8388 102.238 67.333 102.827C65.9535 103.968 63.9761 102.915 62.5642 103.972C62.1344 104.347 61.8038 104.823 61.6017 105.356C61.3996 105.89 61.3322 106.464 61.4055 107.03C61.4989 107.881 61.4509 108.742 61.2637 109.578C60.7258 111.202 59.6224 110.715 58.4409 110.624C57.8938 110.615 57.3576 110.779 56.908 111.091C56.4584 111.404 56.1182 111.849 55.9351 112.365C55.3696 113.643 55.5705 115.134 54.965 116.408C53.8749 118.747 51.8356 116.861 50.1752 116.503C47.1162 115.792 47.1096 119.038 45.3578 120.487C45.0483 120.687 44.6939 120.806 44.3268 120.835C43.9597 120.863 43.5915 120.799 43.2553 120.65C42.9192 120.5 42.6258 120.269 42.4016 119.977C42.1774 119.685 42.0296 119.342 41.9714 118.979C41.7538 117.796 41.8841 116.575 42.3464 115.464C43.0681 113.826 43.6354 112.123 44.041 110.38C44.2705 108.606 43.7716 106.219 46.0575 105.728C47.437 105.434 48.9593 105.759 49.9828 104.544C50.5705 103.623 50.8888 102.556 50.9015 101.464C50.9467 100.598 51.2435 99.7638 51.7555 99.0633C52.2075 98.7027 52.7302 98.4412 53.2897 98.2957C53.8492 98.1502 54.4329 98.124 55.0029 98.2189C56.384 98.4219 57.7933 98.1411 58.992 97.424C60.3715 96.283 60.2316 94.152 61.5673 93.0472C63.2972 91.6163 64.8309 94.3624 66.6732 93.87C67.4233 93.6096 68.0881 93.149 68.5953 92.5379L69.2094 91.809C69.5341 91.5038 69.8779 91.2195 70.2386 90.9577C71.005 90.3238 71.818 90.6827 72.5873 91.9248C72.5026 92.179 73.0214 92.4497 73.0662 92.1917C73.1237 91.9825 73.1393 91.7641 73.1121 91.5489C73.085 91.3338 73.0156 91.1261 72.9079 90.938C72.8003 90.7498 72.6565 90.5849 72.4848 90.4525C72.3131 90.3201 72.1169 90.223 71.9075 90.1666C70.2576 89.9107 69.0961 91.0924 68.2155 92.0786Z" fill="#909CFF"/>
<path d="M76.5718 88.8501C77.3756 90.5173 78.5484 91.9794 80.0013 93.1259C81.4543 94.2723 83.1494 95.073 84.9585 95.4675C86.9258 95.8983 88.9673 95.8623 90.9193 95.3622C91.9 95.1326 92.8483 94.7813 93.7421 94.3164C94.6274 93.9301 95.3863 93.3024 95.9318 92.5053C96.2327 91.8881 95.2787 91.3144 94.758 91.4873C93.976 91.8918 93.2295 92.3613 92.5263 92.8911C91.7717 93.3085 90.9756 93.646 90.151 93.8982C88.4336 94.4119 86.6216 94.5245 84.8547 94.2274C83.2127 93.9156 81.6492 93.281 80.2549 92.3606C78.8606 91.4401 77.663 90.2521 76.7317 88.8652C76.7736 88.4254 76.3662 88.4678 76.5718 88.8501Z" fill="#909CFF"/>
</g>
<defs>
<clipPath id="clip0_432_1554">
<rect width="128.16" height="98.2002" fill="white" transform="translate(161.672 75.9934) rotate(140.405)"/>
</clipPath>
</defs>
</svg>
