<svg width="106" height="66" viewBox="0 0 106 66" fill="none" xmlns="http://www.w3.org/2000/svg">
<g opacity="0.4" clip-path="url(#clip0_432_1566)">
<path d="M47.3741 25.9322C54.1433 27.8274 60.7604 30.2349 67.1697 33.1342C70.2683 34.5464 73.3509 36.0572 76.4175 37.6665C79.1277 39.4261 81.9613 40.9837 84.8958 42.327C86.1117 42.524 86.1 41.0557 85.499 40.4526C80.0474 36.2632 73.982 32.9604 67.5202 30.6625C61.1045 27.862 54.4875 25.556 47.7253 23.7641C34.1 20.1354 19.9929 18.6687 5.90612 19.4161C5.17661 19.2979 5.71453 20.5987 6.11958 20.5631C20.0596 20.3868 33.9467 22.1941 47.3741 25.9322Z" fill="#909CFF"/>
<path d="M88.5869 57.7415C91.6364 56.6098 94.3802 54.7627 96.5928 52.3521C98.8054 49.9415 100.424 47.0361 101.315 43.8747C101.894 40.7105 101.781 37.459 100.982 34.3499C100.183 31.2409 98.7193 28.3502 96.6933 25.8822C87.6877 14.3096 70.4581 9.44491 56.5264 7.9463C39.7212 6.05999 22.7247 9.37072 7.77255 17.4429C7.11709 17.7919 7.82482 18.9684 8.47229 18.6688C20.8571 12.6962 34.4276 9.70243 48.1208 9.92197C62.0643 9.87645 75.7376 13.7007 87.6552 20.9793C90.8412 22.8438 93.5442 25.4454 95.5441 28.5726C97.544 31.6998 98.7842 35.264 99.1638 38.9751C99.0803 42.3575 98.0526 45.6507 96.1996 48.4738C94.3467 51.2968 91.7443 53.5342 88.6936 54.927C75.787 61.8876 59.1607 58.5365 46.6522 52.5657C30.7204 44.9277 18.8266 31.7747 7.21654 18.7182C5.61593 16.8913 4.06629 19.3709 5.40703 20.9534C16.0141 34.7223 29.3831 46.0558 44.6387 54.2117C57.9747 60.62 74.6169 63.8725 88.5869 57.7415Z" fill="#909CFF"/>
<path d="M70.6771 29.3536C73.1667 29.4282 75.635 29.8281 78.0208 30.5433C78.4585 30.6143 78.3518 30.0407 78.1166 29.952C75.7129 29.0074 73.1933 28.3951 70.6255 28.1316C68.0783 27.7509 65.4801 27.8797 62.9777 28.5107C62.2975 28.7039 62.7621 29.8411 63.3697 29.7878C65.7948 29.4894 68.2354 29.3443 70.6771 29.3536Z" fill="#909CFF"/>
<path d="M40.6027 23.6721C41.7335 23.4039 42.825 22.9856 43.8487 22.4281C44.9623 21.973 46.1069 21.6007 47.2734 21.3142C49.6059 20.7571 52.0102 20.5832 54.3942 20.7991C54.7833 20.8621 54.498 20.1585 54.498 20.1585C52.0465 19.7633 49.551 19.7164 47.0839 20.0193C45.8429 20.1759 44.6161 20.4337 43.4153 20.7902C42.1957 21.0471 41.066 21.6329 40.146 22.4856C39.4419 22.8266 39.9544 23.6682 40.6027 23.6721Z" fill="#909CFF"/>
<path d="M24.3264 20.9339L25.7658 19.7512C26.7606 18.9962 27.8353 18.3562 28.9698 17.843C31.2541 16.8415 33.7162 16.328 36.2017 16.3346C36.5908 16.3976 36.2975 15.7433 36.2895 15.7925C33.6782 15.5761 31.0484 15.8893 28.5538 16.7137C27.3041 17.0922 26.0988 17.6092 24.9601 18.2553C24.3885 18.5539 23.8347 18.8863 23.3015 19.2508C22.6301 19.6982 21.9746 20.0472 22.1228 20.9814C22.1625 21.1777 22.2547 21.3591 22.3893 21.5057C22.524 21.6523 22.6959 21.7586 22.8864 21.8131C23.446 22.0554 23.8496 21.4129 24.3264 20.9339Z" fill="#909CFF"/>
<path d="M73.1776 41.6422C69.1937 39.8197 65.4445 37.5143 62.012 34.7764C60.4288 33.458 58.8616 32.041 57.3996 30.5905C55.9377 29.14 54.4909 27.2875 52.9477 25.7227C52.6065 25.364 52.3155 25.6203 52.4789 26.1524C54.9591 29.9406 58.1421 33.2038 61.8523 35.7619C65.3138 38.375 69.0896 40.5329 73.0898 42.1842C73.3896 42.1822 73.4128 41.7309 73.1776 41.6422Z" fill="#909CFF"/>
<path d="M54.5908 34.99C51.1952 33.2658 47.9082 31.3316 44.7485 29.1983C43.174 28.1341 41.6642 26.9792 40.3082 25.7988C38.9522 24.6183 37.4663 23.3156 35.8918 22.2515C35.3561 21.8613 34.9773 22.6595 35.3591 23.0754C37.8882 25.9878 40.852 28.4812 44.1438 30.4656C47.4009 32.5947 50.8507 34.4065 54.4471 35.8769C55.0068 36.1193 55.0046 35.2087 54.5908 34.99Z" fill="#909CFF"/>
</g>
<defs>
<clipPath id="clip0_432_1566">
<rect width="50.6659" height="99.0288" fill="white" transform="translate(105.857 15.8374) rotate(99.2027)"/>
</clipPath>
</defs>
</svg>
