<svg width="50" height="51" viewBox="0 0 50 51" fill="none" xmlns="http://www.w3.org/2000/svg">
<path d="M27.5507 8.69374L29.4792 6.76516C33.2665 2.97794 39.4321 2.8842 43.2412 6.6496C44.6844 8.07956 45.6436 9.92571 45.9839 11.9287C46.3241 13.9318 46.0283 15.9911 45.138 17.8174C44.711 18.6898 44.5671 19.6737 44.7263 20.6319C44.8858 21.59 45.3404 22.4745 46.0268 23.1617C47.289 21.8966 48.2894 20.3951 48.9711 18.7432C49.6528 17.0913 50.0025 15.3213 50 13.5342C49.9973 11.7472 49.6429 9.97813 48.9565 8.32816C48.2701 6.67817 47.2652 5.1796 45.9995 3.91805C40.6733 -1.37816 32.0278 -1.27277 26.7164 4.03832L8.33382 22.4205L6.8226 20.9092C2.97114 17.0578 2.94659 10.7622 6.86599 6.97918C8.31678 5.58319 10.1651 4.6719 12.1559 4.37109C14.1467 4.07029 16.1817 4.3948 17.9802 5.29982C18.8011 5.72048 19.7339 5.87096 20.6454 5.72978C21.5569 5.5886 22.4005 5.16298 23.0557 4.51371L23.1026 4.46709C23.1171 4.45261 23.1287 4.43537 23.1366 4.41638C23.1445 4.3974 23.1486 4.37705 23.1486 4.35649C23.1486 4.33593 23.1445 4.31557 23.1366 4.2966C23.1287 4.27763 23.1171 4.26039 23.1026 4.24589C20.5724 1.77934 17.182 0.393882 13.6485 0.38268C10.1151 0.371481 6.71584 1.73541 4.17015 4.18587C-1.31355 9.47961 -1.29395 18.2826 4.09575 23.6723L22.4729 42.0494L20.5208 44.0016C16.7336 47.7888 10.5677 47.8825 6.75886 44.1171C5.31557 42.6873 4.35644 40.841 4.01617 38.838C3.67594 36.8351 3.97164 34.7758 4.86178 32.9494C5.28883 32.077 5.43276 31.093 5.27348 30.135C5.11418 29.1768 4.6596 28.2922 3.97325 27.6051C2.71108 28.8703 1.71055 30.3716 1.02881 32.0234C0.347067 33.6755 -0.00251954 35.4454 1.36691e-05 37.2326C0.00254688 39.0196 0.35715 40.7887 1.04358 42.4385C1.73 44.0886 2.73479 45.5872 4.00053 46.8487C9.3265 52.1452 17.9722 52.04 23.2836 46.7287L41.69 28.322L43.2069 29.8389C46.9942 33.6261 47.0879 39.7918 43.3225 43.6006C41.8926 45.0441 40.0464 46.0031 38.0434 46.3436C36.0404 46.6838 33.9812 46.3879 32.1547 45.4977C31.2821 45.0704 30.2976 44.9263 29.3391 45.086C28.3807 45.2455 27.4959 45.7005 26.8087 46.3874C28.0739 47.6497 29.5752 48.6503 31.227 49.332C32.8791 50.0137 34.649 50.3634 36.4362 50.3609C38.2232 50.3582 39.9923 50.0036 41.6422 49.3171C43.2922 48.6307 44.7908 47.6259 46.0523 46.3602C51.3488 41.0342 51.2434 32.3885 45.9323 27.0774L27.5507 8.69374ZM25.2171 39.304L11.0788 25.1656L24.8055 11.4392L38.9438 25.5775L25.2171 39.304Z" fill="#001233"/>
</svg>
